<svg width="42" height="32" viewBox="0 0 42 32" fill="none" xmlns="http://www.w3.org/2000/svg">
<path d="M13.1544 0.754858C10.6021 1.21892 8.54819 2.92048 7.75757 5.2408C7.48257 6.04001 7.47398 6.13455 7.46538 7.38064V8.69548H6.86382C5.78101 8.69548 4.56069 9.07361 3.67554 9.67517C2.80757 10.2595 1.86226 11.4197 1.41538 12.4338C0.916945 13.551 0.74507 15.3041 1.02007 16.3869C1.26069 17.3408 1.8021 18.2947 2.4896 18.9822C3.52944 20.022 4.62085 20.6494 5.82398 20.8986C6.27944 20.9931 6.3482 20.9845 6.55444 20.8299C6.70913 20.7181 6.78648 20.572 6.80366 20.3572C6.83804 19.9705 6.66616 19.8502 5.78101 19.601C4.32866 19.197 3.32319 18.3635 2.65288 17.0056C2.12866 15.9572 1.99116 15.0205 2.20601 13.9806C2.57554 12.2017 3.85601 10.715 5.5146 10.1392C6.02163 9.96736 6.25366 9.94158 7.42241 9.94158H8.75445L8.86616 9.70955C8.9607 9.51189 8.9521 9.39158 8.83179 8.93611C8.63413 8.21423 8.63413 6.85642 8.83179 6.11736C9.33023 4.25251 10.7912 2.71423 12.6302 2.11267C13.3091 1.88923 13.5068 1.86345 14.4263 1.87205C15.3029 1.87205 15.5607 1.91501 16.1537 2.10408C17.8896 2.67986 19.2904 4.09783 19.849 5.85954C20.124 6.72751 20.3302 6.81345 21.1724 6.40954C22.0748 5.97986 22.5732 5.85954 23.4498 5.85954C24.3177 5.85954 24.8849 5.99704 25.6755 6.39236C26.6294 6.87361 27.6091 8.00798 27.9185 8.97908C28.2537 10.0361 28.374 10.1306 29.156 9.98454C30.7287 9.68376 32.2755 10.1822 33.4701 11.3595C34.1404 12.0213 34.4755 12.5627 34.8021 13.508C35.0341 14.1955 35.0169 15.5963 34.7677 16.3181C34.5357 16.9799 34.5271 17.2377 34.7505 17.4611C35.1802 17.8908 35.6701 17.547 35.9709 16.5931C36.2201 15.7853 36.2459 14.2041 36.0138 13.3361C35.5498 11.583 34.3724 10.1392 32.731 9.33142C31.8029 8.87595 31.038 8.69548 29.9294 8.69548H29.0959L29.0357 8.45486C29.0099 8.32595 28.8466 7.9822 28.6834 7.69001C27.7209 5.95408 25.9591 4.82829 23.8794 4.61345C23.2435 4.5533 22.2896 4.6822 21.5076 4.94001L20.9146 5.13767L20.6138 4.50173C19.2474 1.62283 16.3685 0.170483 13.1544 0.754858Z" fill="#018FD7"/>
<path d="M18.8091 11.0157C16.5318 11.3767 14.4951 12.9064 13.5154 15.0032C13.0771 15.94 12.9052 16.7993 12.9396 17.9595L12.9654 18.9821L12.1919 19.0337C9.45054 19.2142 7.18179 21.1048 6.52866 23.7431C6.35679 24.4564 6.34819 25.9173 6.52866 26.6564C6.94116 28.4353 8.22163 29.9736 9.95757 30.7814C11.2294 31.3743 10.3185 31.34 24.0513 31.34H36.5123L37.1568 31.1423C39.3826 30.4462 40.9123 28.8478 41.4709 26.6392C41.7201 25.6423 41.6685 24.2329 41.3334 23.2618C40.749 21.5345 39.4341 20.1423 37.7584 19.4634C37.0021 19.1626 35.9365 18.9821 35.2232 19.0337L34.6216 19.0767L34.2607 18.329C33.4787 16.6962 32.0865 15.579 30.2904 15.1321C29.3107 14.8829 28.056 14.9345 27.0591 15.2525C26.6896 15.3814 26.3716 15.4673 26.363 15.4587C26.3458 15.4501 26.2599 15.2525 26.1654 15.0376C25.5724 13.6454 24.2404 12.2962 22.7966 11.6173C21.6537 11.0845 19.9865 10.8353 18.8091 11.0157ZM21.2154 12.3564C23.0373 12.7861 24.6529 14.2728 25.2544 16.0861C25.4779 16.7564 25.6927 17.0314 25.9763 17.0314C26.0537 17.0314 26.4146 16.8767 26.8013 16.6962C27.1794 16.5071 27.6951 16.3181 27.9443 16.2665C30.3677 15.7681 32.7998 17.2806 33.5044 19.7212C33.6935 20.3743 33.8052 20.4345 34.7419 20.3056C36.9334 20.0048 38.9443 21.0876 39.9068 23.09C40.8349 24.9978 40.4568 27.1634 38.9357 28.6673C38.2568 29.3376 37.5951 29.7329 36.7271 29.9821C36.1943 30.1282 35.5412 30.1368 23.9654 30.1368H11.7623L11.1607 29.9478C9.83726 29.5267 8.64273 28.5126 8.07554 27.3267C7.1646 25.4017 7.55132 23.1931 9.08101 21.672C10.1552 20.5978 11.7451 20.0821 13.2662 20.3056L13.9709 20.4087L14.1943 20.1853L14.4177 19.9618L14.263 19.1798C13.8591 17.2204 14.3404 15.4329 15.6466 14.0236C17.0904 12.4595 19.1099 11.8579 21.2154 12.3564Z" fill="#018FD7"/>
</svg>
