<svg width="18" height="18" viewBox="0 0 18 18" fill="none" xmlns="http://www.w3.org/2000/svg">
<path fill-rule="evenodd" clip-rule="evenodd" d="M9.4 13.5H10.75C14.202 13.5 17 10.702 17 7.25C17 3.798 14.202 1 10.75 1H7.25C3.798 1 1 3.798 1 7.25C1 11.28 3.298 13.69 5.715 15.143C6.928 15.872 8.15 16.343 9.0735 16.6315C9.18717 16.6672 9.296 16.7 9.4 16.73V13.5ZM10.4 18C10.4 18 10.018 17.9355 9.4 17.7685C6.795 17.0625 0 14.525 0 7.25C0 3.246 3.246 0 7.25 0H10.75C14.754 0 18 3.246 18 7.25C18 11.254 14.754 14.5 10.75 14.5H10.4V18Z" fill="#018FD7"/>
<path fill-rule="evenodd" clip-rule="evenodd" d="M10.8455 3.24098C11.3605 3.58298 11.7485 4.13748 11.7485 4.88098C11.7485 5.66998 11.4305 6.24998 10.915 6.60498C10.7116 6.74295 10.4869 6.84666 10.25 6.91198V7.67798C10.25 7.8769 10.171 8.06766 10.0303 8.20831C9.88967 8.34897 9.69891 8.42798 9.5 8.42798C9.30108 8.42798 9.11032 8.34897 8.96967 8.20831C8.82901 8.06766 8.75 7.8769 8.75 7.67798V6.27948C8.74995 6.0892 8.82224 5.90601 8.95222 5.76703C9.08219 5.62805 9.26013 5.54367 9.45 5.53098C9.72699 5.51248 9.937 5.45748 10.0635 5.36998C10.1148 5.33598 10.1561 5.28907 10.1835 5.23398C10.2135 5.17398 10.2485 5.06698 10.2485 4.88048C10.2485 4.72448 10.1875 4.60448 10.015 4.48948C9.819 4.35948 9.50399 4.26348 9.12549 4.25148C8.75149 4.23948 8.38799 4.31248 8.12049 4.44198C7.85249 4.57198 7.75399 4.71798 7.72649 4.82548C7.702 4.92089 7.65896 5.01054 7.59982 5.08931C7.54069 5.16808 7.46661 5.23443 7.38183 5.28457C7.29705 5.33472 7.20323 5.36767 7.10571 5.38155C7.0082 5.39544 6.9089 5.38998 6.8135 5.36548C6.71809 5.34099 6.62844 5.29795 6.54967 5.23881C6.4709 5.17967 6.40455 5.1056 6.35441 5.02082C6.30426 4.93604 6.27131 4.84222 6.25743 4.7447C6.24354 4.64718 6.249 4.54789 6.2735 4.45248C6.446 3.78198 6.9475 3.34398 7.4665 3.09248C7.9865 2.83998 8.598 2.73348 9.173 2.75198C9.7445 2.76998 10.3545 2.91398 10.8455 3.24098Z" fill="#018FD7"/>
<path d="M10.5 10.5C10.5 10.7652 10.3946 11.0196 10.2071 11.2071C10.0196 11.3946 9.76522 11.5 9.5 11.5C9.23478 11.5 8.98043 11.3946 8.79289 11.2071C8.60536 11.0196 8.5 10.7652 8.5 10.5C8.5 10.2348 8.60536 9.98043 8.79289 9.79289C8.98043 9.60536 9.23478 9.5 9.5 9.5C9.76522 9.5 10.0196 9.60536 10.2071 9.79289C10.3946 9.98043 10.5 10.2348 10.5 10.5Z" fill="#018FD7"/>
</svg>
