<svg width="47" height="36" viewBox="0 0 47 36" fill="none" xmlns="http://www.w3.org/2000/svg">
<path d="M30.7621 0.310392C30.6177 0.510352 30.5844 0.876946 30.5844 1.97673C30.5844 3.25425 30.6066 3.42089 30.8066 3.62085C31.1287 3.94301 31.6286 3.90968 31.9063 3.55419C32.1174 3.28758 32.1396 3.10984 32.1396 1.88786C32.1396 0.654768 32.1174 0.488135 31.9175 0.288174C31.6064 -0.0228753 30.9843 -0.0117664 30.7621 0.310392Z" fill="#DFA431"/>
<path d="M23.608 2.17644C23.2414 2.52082 23.3081 2.8763 23.9857 4.07606C24.8189 5.54244 25.1299 5.75351 25.7409 5.27583C26.163 4.94256 26.1075 4.60929 25.4076 3.3762C24.5856 1.93204 24.1634 1.65432 23.608 2.17644Z" fill="#DFA431"/>
<path d="M38.1162 2.08749C37.783 2.34299 36.6943 4.36481 36.6943 4.7203C36.6943 5.27574 37.1942 5.60901 37.7274 5.40905C37.9274 5.33129 38.2051 4.94248 38.6828 4.0982C39.0605 3.44277 39.3604 2.80957 39.3604 2.69848C39.3604 2.40965 38.8605 1.95418 38.5495 1.95418C38.4051 1.95418 38.2051 2.02083 38.1162 2.08749Z" fill="#DFA431"/>
<path d="M30.029 7.29751C26.463 7.61966 22.997 9.96364 21.364 13.163C20.753 14.3739 20.7308 14.9293 21.2974 15.1848C21.8306 15.4292 22.1083 15.2404 22.5971 14.2517C23.5969 12.2743 24.8078 10.9746 26.5852 9.97475C28.5293 8.88608 31.051 8.5417 33.2505 9.06382C37.3497 10.0414 40.338 13.7629 40.3936 17.9509C40.4047 18.5953 40.3491 19.4507 40.2603 19.8728C40.127 20.5393 40.127 20.6504 40.2936 20.8948C40.6824 21.4947 41.5045 21.3392 41.6933 20.6171C41.9266 19.7395 42.0488 18.4175 41.971 17.4066C41.7822 14.7294 40.7046 12.3965 38.7606 10.4413C36.3833 8.07513 33.4061 6.99757 30.029 7.29751Z" fill="#DFA431"/>
<path d="M18.3202 7.45338C18.0758 7.69777 18.0091 7.99771 18.1313 8.30876C18.2091 8.50872 18.609 8.79755 19.4422 9.27524C20.0976 9.64183 20.7308 9.95288 20.8419 9.95288C21.1307 9.95288 21.5862 9.45298 21.5862 9.14193C21.5862 8.74201 21.3973 8.57538 20.2309 7.90884C19.12 7.26453 18.6312 7.15344 18.3202 7.45338Z" fill="#DFA431"/>
<path d="M42.5154 7.87551C41.2045 8.63092 41.1379 8.68647 41.1379 9.13082C41.1379 9.55296 41.4823 9.95288 41.8488 9.95288C42.0932 9.95288 43.9373 8.94197 44.3372 8.58649C44.6372 8.30876 44.6705 7.7311 44.3817 7.47559C44.0373 7.16455 43.5818 7.26453 42.5154 7.87551Z" fill="#DFA431"/>
<path d="M43.2375 14.5184C42.6265 14.7406 42.5709 15.6071 43.1486 15.8959C43.5041 16.0848 45.6148 16.1292 46.0702 15.9515C46.7145 15.7071 46.7257 14.8184 46.0702 14.5518C45.6481 14.374 43.6929 14.3518 43.2375 14.5184Z" fill="#DFA431"/>
<path d="M14.5542 15.6181C12.2991 16.0291 10.3217 17.0956 8.74424 18.7508C8.01105 19.5284 6.81129 21.2725 6.81129 21.5725C6.81129 21.6502 6.56689 21.7391 6.23363 21.7835C3.42307 22.1612 1.23462 23.972 0.301469 26.6714C0.0348555 27.438 -0.0095801 27.7268 0.0015288 28.8377C0.0015288 29.9152 0.0459644 30.2596 0.301469 31.0261C1.00133 33.159 2.74543 34.9031 4.92278 35.6474L5.64485 35.8918L21.6639 35.9252C39.2604 35.9585 38.5161 35.9807 39.9936 35.292C42.8153 33.9589 44.5038 30.8706 44.0372 27.8601C43.7817 26.2271 43.193 25.0273 42.0821 23.8942C40.849 22.6389 39.1604 21.8724 37.3719 21.7613C36.0833 21.6835 35.0168 21.9168 33.7504 22.5611L32.7506 23.061L31.7508 22.5611C30.7288 22.0501 29.4846 21.728 28.5625 21.728C28.1293 21.728 27.385 21.828 26.5296 22.0057C26.2074 22.0724 26.1852 22.0501 25.7298 21.1503C24.4078 18.573 22.1749 16.729 19.3088 15.8847C18.4756 15.6403 18.0424 15.5848 16.6982 15.5514C15.8095 15.5403 14.843 15.5625 14.5542 15.6181ZM18.5867 17.3177C21.5639 18.1398 23.608 19.9172 24.7077 22.6722C25.2521 24.0164 25.3743 24.0942 26.5518 23.7054C27.0295 23.5387 27.6738 23.3721 27.9738 23.3388C29.1957 23.1832 31.0176 23.7498 32.0729 24.6052C32.6173 25.0384 32.8839 25.0384 33.4838 24.5719C36.4499 22.3168 40.4935 23.2499 42.0376 26.5604C43.4929 29.6597 41.6266 33.4257 38.2384 34.2255C37.1608 34.4699 6.90016 34.4699 5.8226 34.2255C4.43398 33.8922 3.00093 32.8591 2.32329 31.6927C1.27905 29.9152 1.30127 27.6157 2.36773 25.9605C3.31198 24.4941 4.71171 23.5943 6.37804 23.3832C7.89996 23.1832 7.77777 23.2499 8.1999 22.3279C9.39967 19.695 11.7548 17.8065 14.5764 17.2178C15.4873 17.0289 17.7313 17.0845 18.5867 17.3177Z" fill="#DFA431"/>
</svg>
