<svg width="18" height="18" viewBox="0 0 18 18" fill="none" xmlns="http://www.w3.org/2000/svg">
<path d="M14.8198 6.07304C14.0652 2.75261 11.1688 1.25769 8.62452 1.25769C8.62452 1.25769 8.62452 1.25769 8.61733 1.25769C6.08029 1.25769 3.1767 2.74542 2.42206 6.06586C1.58116 9.7744 3.85229 12.9152 5.9078 14.8916C6.66963 15.6247 7.64707 15.9912 8.62452 15.9912C9.60196 15.9912 10.5794 15.6247 11.3341 14.8916C13.3896 12.9152 15.6607 9.78159 14.8198 6.07304ZM8.62452 9.67378C7.37396 9.67378 6.36058 8.6604 6.36058 7.40985C6.36058 6.15929 7.37396 5.14591 8.62452 5.14591C9.87507 5.14591 10.8885 6.15929 10.8885 7.40985C10.8885 8.6604 9.87507 9.67378 8.62452 9.67378Z" fill="#959595"/>
</svg>
