<svg width="147" height="74" viewBox="0 0 147 74" fill="none" xmlns="http://www.w3.org/2000/svg">
<path d="M3.24023 37V7.01758H11.3408V30.458H22.8867V37H3.24023ZM46.4633 25.3311C46.4633 27.2725 46.1967 28.9951 45.6635 30.499C45.1303 32.0029 44.3579 33.2676 43.3461 34.293C42.3344 35.3184 41.1108 36.0977 39.6752 36.6309C38.2397 37.1504 36.6196 37.4102 34.8149 37.4102C33.1332 37.4102 31.5883 37.1504 30.1801 36.6309C28.7856 36.0977 27.5688 35.3184 26.5297 34.293C25.4907 33.2676 24.684 32.0029 24.1098 30.499C23.5493 28.9951 23.269 27.2725 23.269 25.3311C23.269 22.7607 23.7338 20.5869 24.6635 18.8096C25.6069 17.0322 26.9467 15.6787 28.683 14.749C30.433 13.8193 32.518 13.3545 34.9379 13.3545C37.1664 13.3545 39.1489 13.8193 40.8852 14.749C42.6215 15.6787 43.9819 17.0322 44.9662 18.8096C45.9643 20.5869 46.4633 22.7607 46.4633 25.3311ZM31.4106 25.3311C31.4106 26.6572 31.5268 27.7783 31.7592 28.6943C31.9916 29.5967 32.3608 30.2871 32.8666 30.7656C33.3862 31.2305 34.0629 31.4629 34.8969 31.4629C35.7309 31.4629 36.394 31.2305 36.8862 30.7656C37.3784 30.2871 37.7338 29.5967 37.9526 28.6943C38.185 27.7783 38.3012 26.6572 38.3012 25.3311C38.3012 24.0049 38.185 22.8975 37.9526 22.0088C37.7338 21.1201 37.3715 20.4502 36.8657 19.999C36.3735 19.5479 35.7036 19.3223 34.8559 19.3223C33.6391 19.3223 32.7573 19.8281 32.2104 20.8398C31.6772 21.8516 31.4106 23.3486 31.4106 25.3311ZM62.6571 13.3545C65.0497 13.3545 67.0048 14.0312 68.5223 15.3848C70.0399 16.7383 70.7987 18.9053 70.7987 21.8857V37H62.7802V24.3262C62.7802 22.7812 62.5546 21.6191 62.1034 20.8398C61.6659 20.0469 60.955 19.6504 59.9706 19.6504C58.453 19.6504 57.4345 20.2725 56.9149 21.5166C56.3954 22.7471 56.1356 24.5176 56.1356 26.8281V37H48.1171V13.7646H54.1669L55.2538 16.8408H55.5614C56.0536 16.1025 56.6415 15.4736 57.3251 14.9541C58.0087 14.4346 58.7948 14.0381 59.6835 13.7646C60.5721 13.4912 61.5634 13.3545 62.6571 13.3545ZM80.5325 37.4102C78.14 37.4102 76.1712 36.3916 74.6263 34.3545C73.0814 32.3174 72.3089 29.3369 72.3089 25.4131C72.3089 21.4482 73.1019 18.4473 74.6878 16.4102C76.2738 14.373 78.3245 13.3545 80.8402 13.3545C81.8792 13.3545 82.7747 13.5049 83.5267 13.8057C84.2786 14.1064 84.928 14.5166 85.4749 15.0361C86.0355 15.542 86.5208 16.1162 86.931 16.7588H87.095C86.9993 16.1709 86.9105 15.3643 86.8284 14.3389C86.7464 13.2998 86.7054 12.2881 86.7054 11.3037V5.08984H94.7855V37H88.7357L87.013 34.0674H86.7054C86.3363 34.6826 85.8714 35.2432 85.3109 35.749C84.764 36.2549 84.0941 36.6582 83.3011 36.959C82.5218 37.2598 81.5989 37.4102 80.5325 37.4102ZM83.8138 31.0732C85.0989 31.0732 86.0013 30.6699 86.5208 29.8633C87.054 29.043 87.3411 27.7988 87.3821 26.1309V25.4951C87.3821 23.6631 87.1224 22.2617 86.6029 21.291C86.097 20.3066 85.14 19.8145 83.7318 19.8145C82.7747 19.8145 81.9818 20.2793 81.3529 21.209C80.7239 22.1387 80.4095 23.5811 80.4095 25.5361C80.4095 27.4639 80.7239 28.8721 81.3529 29.7607C81.9954 30.6357 82.8157 31.0732 83.8138 31.0732ZM119.593 25.3311C119.593 27.2725 119.326 28.9951 118.793 30.499C118.26 32.0029 117.487 33.2676 116.475 34.293C115.464 35.3184 114.24 36.0977 112.804 36.6309C111.369 37.1504 109.749 37.4102 107.944 37.4102C106.262 37.4102 104.718 37.1504 103.309 36.6309C101.915 36.0977 100.698 35.3184 99.6589 34.293C98.6199 33.2676 97.8132 32.0029 97.239 30.499C96.6785 28.9951 96.3982 27.2725 96.3982 25.3311C96.3982 22.7607 96.863 20.5869 97.7927 18.8096C98.7361 17.0322 100.076 15.6787 101.812 14.749C103.562 13.8193 105.647 13.3545 108.067 13.3545C110.296 13.3545 112.278 13.8193 114.014 14.749C115.751 15.6787 117.111 17.0322 118.095 18.8096C119.094 20.5869 119.593 22.7607 119.593 25.3311ZM104.54 25.3311C104.54 26.6572 104.656 27.7783 104.888 28.6943C105.121 29.5967 105.49 30.2871 105.996 30.7656C106.515 31.2305 107.192 31.4629 108.026 31.4629C108.86 31.4629 109.523 31.2305 110.015 30.7656C110.508 30.2871 110.863 29.5967 111.082 28.6943C111.314 27.7783 111.43 26.6572 111.43 25.3311C111.43 24.0049 111.314 22.8975 111.082 22.0088C110.863 21.1201 110.501 20.4502 109.995 19.999C109.503 19.5479 108.833 19.3223 107.985 19.3223C106.768 19.3223 105.886 19.8281 105.34 20.8398C104.806 21.8516 104.54 23.3486 104.54 25.3311ZM135.786 13.3545C138.179 13.3545 140.134 14.0312 141.652 15.3848C143.169 16.7383 143.928 18.9053 143.928 21.8857V37H135.909V24.3262C135.909 22.7812 135.684 21.6191 135.233 20.8398C134.795 20.0469 134.084 19.6504 133.1 19.6504C131.582 19.6504 130.564 20.2725 130.044 21.5166C129.525 22.7471 129.265 24.5176 129.265 26.8281V37H121.246V13.7646H127.296L128.383 16.8408H128.691C129.183 16.1025 129.771 15.4736 130.454 14.9541C131.138 14.4346 131.924 14.0381 132.813 13.7646C133.701 13.4912 134.693 13.3545 135.786 13.3545Z" fill="#252525"/>
<path d="M15.8562 54.2777H25.6775V67.9045C24.204 68.4042 22.6856 68.7758 21.1224 69.0192C19.5721 69.2627 17.8359 69.3844 15.9139 69.3844C12.9925 69.3844 10.526 68.8014 8.51433 67.6354C6.51548 66.4694 4.99712 64.8101 3.95926 62.6575C2.92139 60.4921 2.40246 57.923 2.40246 54.9504C2.40246 52.0418 2.97265 49.5048 4.11302 47.3394C5.2662 45.174 6.9255 43.4955 9.09092 42.3038C11.2691 41.0994 13.883 40.4972 16.9326 40.4972C18.4958 40.4972 19.9757 40.6445 21.3723 40.9392C22.7817 41.2211 24.0887 41.6247 25.2931 42.1501L24.0438 44.9946C23.006 44.5461 21.8592 44.1617 20.6035 43.8414C19.3606 43.5211 18.0729 43.3609 16.7404 43.3609C14.4468 43.3609 12.48 43.835 10.8399 44.7832C9.21264 45.7314 7.96336 47.0703 7.09207 48.8001C6.23359 50.5299 5.80435 52.58 5.80435 54.9504C5.80435 57.2952 6.18234 59.3389 6.93831 61.0815C7.69429 62.8113 8.87309 64.1566 10.4747 65.1176C12.0764 66.0786 14.1393 66.5591 16.6635 66.5591C17.932 66.5591 19.0211 66.4886 19.9308 66.3477C20.8406 66.1939 21.667 66.0145 22.4102 65.8095V57.1991H15.8562V54.2777ZM53.7383 40.9008V59.0826C53.7383 61.0687 53.3347 62.8369 52.5274 64.3873C51.733 65.9377 50.5286 67.1613 48.9141 68.0582C47.2997 68.9423 45.2752 69.3844 42.8407 69.3844C39.3683 69.3844 36.7224 68.4426 34.903 66.5591C33.0963 64.6756 32.193 62.1578 32.193 59.0058V40.9008H35.4796V59.1019C35.4796 61.4851 36.1074 63.3238 37.3631 64.6179C38.6316 65.912 40.5215 66.5591 43.0329 66.5591C44.7499 66.5591 46.1529 66.2516 47.242 65.6366C48.3439 65.0087 49.1576 64.1374 49.6829 63.0227C50.2211 61.8951 50.4901 60.5946 50.4901 59.1211V40.9008H53.7383ZM61.1955 69V40.9008H64.4629V69H61.1955ZM94.5032 54.6813C94.5032 57.8462 93.9267 60.4921 92.7735 62.6191C91.6203 64.7332 89.9482 66.3285 87.7571 67.4048C85.5789 68.4683 82.933 69 79.8194 69H72.1892V40.9008H80.6651C83.5224 40.9008 85.9825 41.4261 88.0454 42.4768C90.1083 43.5147 91.6972 45.0587 92.8119 47.1088C93.9395 49.1461 94.5032 51.6702 94.5032 54.6813ZM91.0629 54.7966C91.0629 52.2725 90.6401 50.1903 89.7944 48.5502C88.9616 46.9102 87.7315 45.6929 86.1042 44.8985C84.4898 44.0913 82.5102 43.6877 80.1654 43.6877H75.4565V66.1939H79.435C83.3046 66.1939 86.2067 65.2393 88.1415 63.3302C90.0891 61.421 91.0629 58.5765 91.0629 54.7966ZM116.394 69H100.75V40.9008H116.394V43.7838H104.017V52.8747H115.683V55.7192H104.017V66.117H116.394V69Z" fill="#018FD7"/>
</svg>
