<svg width="147" height="74" viewBox="0 0 147 74" fill="none" xmlns="http://www.w3.org/2000/svg">
<path d="M3.24023 37V7.01758H11.3408V30.458H22.8867V37H3.24023ZM46.4633 25.3311C46.4633 27.2725 46.1967 28.9951 45.6635 30.499C45.1303 32.0029 44.3579 33.2676 43.3461 34.293C42.3344 35.3184 41.1108 36.0977 39.6752 36.6309C38.2397 37.1504 36.6196 37.4102 34.8149 37.4102C33.1332 37.4102 31.5883 37.1504 30.1801 36.6309C28.7856 36.0977 27.5688 35.3184 26.5297 34.293C25.4907 33.2676 24.684 32.0029 24.1098 30.499C23.5493 28.9951 23.269 27.2725 23.269 25.3311C23.269 22.7607 23.7338 20.5869 24.6635 18.8096C25.6069 17.0322 26.9467 15.6787 28.683 14.749C30.433 13.8193 32.518 13.3545 34.9379 13.3545C37.1664 13.3545 39.1489 13.8193 40.8852 14.749C42.6215 15.6787 43.9819 17.0322 44.9662 18.8096C45.9643 20.5869 46.4633 22.7607 46.4633 25.3311ZM31.4106 25.3311C31.4106 26.6572 31.5268 27.7783 31.7592 28.6943C31.9916 29.5967 32.3608 30.2871 32.8666 30.7656C33.3862 31.2305 34.0629 31.4629 34.8969 31.4629C35.7309 31.4629 36.394 31.2305 36.8862 30.7656C37.3784 30.2871 37.7338 29.5967 37.9526 28.6943C38.185 27.7783 38.3012 26.6572 38.3012 25.3311C38.3012 24.0049 38.185 22.8975 37.9526 22.0088C37.7338 21.1201 37.3715 20.4502 36.8657 19.999C36.3735 19.5479 35.7036 19.3223 34.8559 19.3223C33.6391 19.3223 32.7573 19.8281 32.2104 20.8398C31.6772 21.8516 31.4106 23.3486 31.4106 25.3311ZM62.6571 13.3545C65.0497 13.3545 67.0048 14.0312 68.5223 15.3848C70.0399 16.7383 70.7987 18.9053 70.7987 21.8857V37H62.7802V24.3262C62.7802 22.7812 62.5546 21.6191 62.1034 20.8398C61.6659 20.0469 60.955 19.6504 59.9706 19.6504C58.453 19.6504 57.4345 20.2725 56.9149 21.5166C56.3954 22.7471 56.1356 24.5176 56.1356 26.8281V37H48.1171V13.7646H54.1669L55.2538 16.8408H55.5614C56.0536 16.1025 56.6415 15.4736 57.3251 14.9541C58.0087 14.4346 58.7948 14.0381 59.6835 13.7646C60.5721 13.4912 61.5634 13.3545 62.6571 13.3545ZM80.5325 37.4102C78.14 37.4102 76.1712 36.3916 74.6263 34.3545C73.0814 32.3174 72.3089 29.3369 72.3089 25.4131C72.3089 21.4482 73.1019 18.4473 74.6878 16.4102C76.2738 14.373 78.3245 13.3545 80.8402 13.3545C81.8792 13.3545 82.7747 13.5049 83.5267 13.8057C84.2786 14.1064 84.928 14.5166 85.4749 15.0361C86.0355 15.542 86.5208 16.1162 86.931 16.7588H87.095C86.9993 16.1709 86.9105 15.3643 86.8284 14.3389C86.7464 13.2998 86.7054 12.2881 86.7054 11.3037V5.08984H94.7855V37H88.7357L87.013 34.0674H86.7054C86.3363 34.6826 85.8714 35.2432 85.3109 35.749C84.764 36.2549 84.0941 36.6582 83.3011 36.959C82.5218 37.2598 81.5989 37.4102 80.5325 37.4102ZM83.8138 31.0732C85.0989 31.0732 86.0013 30.6699 86.5208 29.8633C87.054 29.043 87.3411 27.7988 87.3821 26.1309V25.4951C87.3821 23.6631 87.1224 22.2617 86.6029 21.291C86.097 20.3066 85.14 19.8145 83.7318 19.8145C82.7747 19.8145 81.9818 20.2793 81.3529 21.209C80.7239 22.1387 80.4095 23.5811 80.4095 25.5361C80.4095 27.4639 80.7239 28.8721 81.3529 29.7607C81.9954 30.6357 82.8157 31.0732 83.8138 31.0732ZM119.593 25.3311C119.593 27.2725 119.326 28.9951 118.793 30.499C118.26 32.0029 117.487 33.2676 116.475 34.293C115.464 35.3184 114.24 36.0977 112.804 36.6309C111.369 37.1504 109.749 37.4102 107.944 37.4102C106.262 37.4102 104.718 37.1504 103.309 36.6309C101.915 36.0977 100.698 35.3184 99.6589 34.293C98.6199 33.2676 97.8132 32.0029 97.239 30.499C96.6785 28.9951 96.3982 27.2725 96.3982 25.3311C96.3982 22.7607 96.863 20.5869 97.7927 18.8096C98.7361 17.0322 100.076 15.6787 101.812 14.749C103.562 13.8193 105.647 13.3545 108.067 13.3545C110.296 13.3545 112.278 13.8193 114.014 14.749C115.751 15.6787 117.111 17.0322 118.095 18.8096C119.094 20.5869 119.593 22.7607 119.593 25.3311ZM104.54 25.3311C104.54 26.6572 104.656 27.7783 104.888 28.6943C105.121 29.5967 105.49 30.2871 105.996 30.7656C106.515 31.2305 107.192 31.4629 108.026 31.4629C108.86 31.4629 109.523 31.2305 110.015 30.7656C110.508 30.2871 110.863 29.5967 111.082 28.6943C111.314 27.7783 111.43 26.6572 111.43 25.3311C111.43 24.0049 111.314 22.8975 111.082 22.0088C110.863 21.1201 110.501 20.4502 109.995 19.999C109.503 19.5479 108.833 19.3223 107.985 19.3223C106.768 19.3223 105.886 19.8281 105.34 20.8398C104.806 21.8516 104.54 23.3486 104.54 25.3311ZM135.786 13.3545C138.179 13.3545 140.134 14.0312 141.652 15.3848C143.169 16.7383 143.928 18.9053 143.928 21.8857V37H135.909V24.3262C135.909 22.7812 135.684 21.6191 135.233 20.8398C134.795 20.0469 134.084 19.6504 133.1 19.6504C131.582 19.6504 130.564 20.2725 130.044 21.5166C129.525 22.7471 129.265 24.5176 129.265 26.8281V37H121.246V13.7646H127.296L128.383 16.8408H128.691C129.183 16.1025 129.771 15.4736 130.454 14.9541C131.138 14.4346 131.924 14.0381 132.813 13.7646C133.701 13.4912 134.693 13.3545 135.786 13.3545Z" fill="#252525"/>
<path d="M16.2022 69L6.76533 44.1297H6.61158C6.66283 44.6551 6.70767 45.2957 6.74611 46.0517C6.78455 46.8077 6.81659 47.6341 6.84221 48.531C6.86784 49.4151 6.88065 50.3185 6.88065 51.241V69H3.84394V40.9008H8.6873L17.586 64.272H17.7206L26.7538 40.9008H31.5587V69H28.3298V51.0104C28.3298 50.1775 28.3426 49.3447 28.3683 48.5118C28.3939 47.6661 28.4259 46.8717 28.4644 46.1286C28.5028 45.3726 28.5412 44.7191 28.5797 44.1682H28.4259L18.8737 69H16.2022ZM54.8915 69H39.2466V40.9008H54.8915V43.7838H42.514V52.8747H54.1803V55.7192H42.514V66.117H54.8915V69ZM69.7483 69H66.4617V43.7838H57.6207V40.9008H78.5509V43.7838H69.7483V69ZM90.3902 40.9008C92.6966 40.9008 94.5993 41.1891 96.0985 41.7657C97.6104 42.3295 98.738 43.1944 99.4811 44.3603C100.224 45.5263 100.596 47.0127 100.596 48.8193C100.596 50.3056 100.327 51.5485 99.7887 52.5479C99.2505 53.5346 98.5458 54.3354 97.6745 54.9504C96.8032 55.5654 95.8743 56.0395 94.8876 56.3727L102.595 69H98.7892L91.9086 57.276H86.0658V69H82.7985V40.9008H90.3902ZM90.198 43.7261H86.0658V54.5083H90.5248C92.8183 54.5083 94.5032 54.0407 95.5796 53.1053C96.6687 52.17 97.2132 50.7925 97.2132 48.9731C97.2132 47.0639 96.6366 45.7121 95.4835 44.9177C94.3431 44.1233 92.5813 43.7261 90.198 43.7261ZM131.463 54.912C131.463 57.0774 131.187 59.0506 130.636 60.8316C130.085 62.5998 129.265 64.1246 128.176 65.4059C127.1 66.6744 125.761 67.6546 124.159 68.3465C122.558 69.0384 120.7 69.3844 118.586 69.3844C116.407 69.3844 114.505 69.0384 112.877 68.3465C111.263 67.6546 109.917 66.668 108.841 65.3867C107.778 64.1054 106.977 62.5742 106.439 60.7932C105.913 59.0122 105.651 57.0389 105.651 54.8735C105.651 52.0034 106.125 49.4856 107.073 47.3202C108.021 45.1548 109.456 43.4698 111.378 42.2654C113.313 41.061 115.735 40.4588 118.643 40.4588C121.424 40.4588 123.762 41.0546 125.658 42.2462C127.568 43.4378 129.009 45.1163 129.983 47.2817C130.969 49.4343 131.463 51.9778 131.463 54.912ZM109.091 54.912C109.091 57.2952 109.431 59.3581 110.11 61.1007C110.789 62.8433 111.827 64.1887 113.223 65.1368C114.633 66.085 116.42 66.5591 118.586 66.5591C120.764 66.5591 122.545 66.085 123.929 65.1368C125.325 64.1887 126.357 62.8433 127.023 61.1007C127.689 59.3581 128.022 57.2952 128.022 54.912C128.022 51.2858 127.26 48.4541 125.735 46.4169C124.223 44.3668 121.859 43.3417 118.643 43.3417C116.465 43.3417 114.671 43.8094 113.262 44.7447C111.852 45.6801 110.802 47.0127 110.11 48.7424C109.431 50.4594 109.091 52.5159 109.091 54.912Z" fill="#018FD7"/>
</svg>
