<svg width="18" height="16" viewBox="0 0 18 16" fill="none" xmlns="http://www.w3.org/2000/svg">
<path d="M14.8333 0.5C14.4459 0.502261 14.0643 0.594527 13.7187 0.769517C13.3731 0.944507 13.0728 1.19743 12.8417 1.50833C12.0576 1.35079 11.257 1.292 10.4583 1.33333L10.5667 3C11.1578 2.96975 11.7504 3.00609 12.3333 3.10833C12.3546 3.59761 12.519 4.06988 12.8063 4.46651C13.0936 4.86314 13.491 5.16665 13.9493 5.33937C14.4076 5.51208 14.9065 5.5464 15.3841 5.43805C15.8617 5.32969 16.297 5.08345 16.6358 4.72989C16.9747 4.37632 17.2023 3.93102 17.2903 3.44925C17.3783 2.96748 17.3229 2.47048 17.1309 2.01994C16.9389 1.5694 16.6188 1.18517 16.2103 0.914963C15.8019 0.644752 15.3231 0.50046 14.8333 0.5ZM14.8333 3.83333C14.6685 3.83333 14.5074 3.78446 14.3704 3.69289C14.2333 3.60132 14.1265 3.47117 14.0634 3.3189C14.0004 3.16663 13.9839 2.99908 14.016 2.83742C14.0482 2.67577 14.1275 2.52729 14.2441 2.41074C14.3606 2.2942 14.5091 2.21483 14.6708 2.18268C14.8324 2.15052 15 2.16703 15.1522 2.2301C15.3045 2.29317 15.4347 2.39998 15.5262 2.53702C15.6178 2.67407 15.6667 2.83518 15.6667 3C15.6667 3.22101 15.5789 3.43298 15.4226 3.58926C15.2663 3.74554 15.0543 3.83333 14.8333 3.83333ZM6.38333 4.55L5.39166 3.20833C6.37354 2.48222 7.48515 1.95045 8.66666 1.64167L9.08333 3.25833C8.10939 3.51329 7.19301 3.95168 6.38333 4.55ZM16.5 13C16.5032 13.4021 16.4094 13.799 16.2265 14.1571C16.0436 14.5152 15.7771 14.8239 15.4495 15.057C15.1218 15.2901 14.7428 15.4408 14.3446 15.4962C13.9463 15.5516 13.5406 15.5101 13.1618 15.3753C12.783 15.2404 12.4423 15.0162 12.1686 14.7217C11.8949 14.4271 11.6963 14.0708 11.5896 13.6832C11.483 13.2955 11.4714 12.8878 11.5559 12.4947C11.6404 12.1016 11.8185 11.7346 12.075 11.425C11.294 10.6694 10.3653 10.0832 9.3472 9.70318C8.32908 9.32318 7.24345 9.15755 6.15833 9.21667C5.975 9.225 5.8 9.25 5.61666 9.28333C5.53491 9.72975 5.33318 10.1455 5.0331 10.486C4.73303 10.8264 4.34593 11.0788 3.91333 11.216C3.48073 11.3532 3.01894 11.3701 2.57749 11.2648C2.13604 11.1594 1.73158 10.936 1.40748 10.6183C1.08339 10.3006 0.851897 9.90063 0.737824 9.46136C0.62375 9.0221 0.631402 8.56006 0.759959 8.12481C0.888516 7.68956 1.13313 7.29752 1.46756 6.99073C1.802 6.68393 2.21363 6.47396 2.65833 6.38333C3.03275 5.67294 3.49468 5.01224 4.03333 4.41667L5.25 5.55C4.93899 5.89921 4.66008 6.27573 4.41666 6.675C4.80802 6.90505 5.13037 7.23603 5.35 7.63333C5.59166 7.58333 5.825 7.58333 6.08333 7.55C7.47053 7.47612 8.85717 7.7055 10.1467 8.22217C11.4362 8.73883 12.5976 9.53037 13.55 10.5417C13.6984 10.514 13.849 10.5001 14 10.5C14.663 10.5 15.2989 10.7634 15.7678 11.2322C16.2366 11.7011 16.5 12.337 16.5 13Z" fill="#018FD7"/>
</svg>
