<svg width="99" height="86" viewBox="0 0 99 86" fill="none" xmlns="http://www.w3.org/2000/svg">
<path d="M3.34399 81.3874L95.9059 63.21V62.0947L3.34399 75.0854V81.3874ZM65.4448 7.88913C63.5375 6.90841 59.5064 5.5549 57.4552 5.1821C56.2796 4.96863 54.7838 4.81859 53.0822 4.73041C51.133 4.63801 49.1811 4.61634 47.2304 4.66545C38.5988 4.85262 30.4298 5.55799 25.5324 8.31143C23.2151 9.6139 21.6884 11.1871 20.2761 12.6349C16.1042 16.9121 12.9114 22.0987 10.5725 27.3952C5.56066 38.7431 -0.742851 53.0424 6.09434 59.2299C6.17941 59.3181 6.26449 59.4047 6.35576 59.4913C6.37741 59.5084 6.39134 59.53 6.41454 59.5486H6.42227C7.27004 60.3484 8.31192 60.9131 9.44487 61.1867L9.40156 61.1883C9.40156 61.1883 10.127 61.674 10.687 62.4397L3.34399 62.8914V66.9751L10.0234 66.491C8.90965 67.9342 10.9716 70.2916 16.7353 69.7409C36.5446 67.8398 95.9059 61.7312 95.9059 61.7312V56.3156L5.92882 54.8538C5.78181 54.4236 5.66905 53.9824 5.5916 53.5343H25.1178C30.6247 53.5343 41.3538 49.763 46.6549 47.9687C52.482 45.9979 63.5205 39.4377 69.5038 38.3425C70.6176 38.1383 72.8869 38.4353 73.9975 38.6426C75.4485 38.9148 77.5569 39.4763 79.9282 40.174V28.9576C77.659 27.9196 75.631 27.1106 74.1847 26.7641C73.1746 26.5212 71.0538 26.4114 70.0653 26.7641C63.2328 29.1912 52.0597 40.7834 45.5304 44.2098C40.503 46.8487 29.9765 51.7276 24.4913 51.7276H5.41526C5.34256 48.8566 6.09898 45.4287 7.26223 41.843C7.24212 41.9281 7.21427 42.0209 7.19416 42.106C7.5979 42.9723 8.15168 43.5183 8.74104 43.4827C9.80684 43.4224 10.5617 41.5491 10.4333 39.3015C10.3544 37.9078 9.94606 36.7275 9.39846 36.0268C9.95998 34.6331 10.5431 33.2486 11.1263 31.8997C11.2037 32.6608 11.7002 33.5317 12.3205 33.5317H26.6152C28.6137 33.5317 32.6604 30.7349 34.3882 29.5268C39.1279 26.2103 48.0734 17.5014 52.711 13.9792C52.8069 13.9065 52.9213 13.8214 53.0389 13.7394C56.0692 16.1897 59.1382 20.0708 59.1382 20.0708C59.1382 20.0708 64.7843 16.3072 66.8819 15.9344C68.4829 15.6514 71.8551 16.0535 73.3107 16.9136C76.0858 18.5533 91.5019 28.7132 95.9059 31.6213V29.5469C95.9059 29.5469 73.5752 12.0734 65.4448 7.88913Z" fill="#018FD7"/>
<path d="M84.8565 41.693V31.3661C83.7398 30.7921 82.6156 30.2326 81.4843 29.6877V40.6427C82.5857 40.9768 83.7211 41.3326 84.8565 41.693ZM89.0718 43.0651V33.5936C88.2164 33.1295 87.3393 32.6608 86.4498 32.1952V42.2066C87.3393 42.4943 88.2164 42.7805 89.0718 43.0651ZM93.8006 44.6553C94.591 44.926 95.301 45.1689 95.9059 45.3808V37.4128C95.2995 37.0632 94.5879 36.658 93.8006 36.2125V44.6553ZM92.7239 44.2902V35.6061C91.9598 35.1776 91.143 34.7244 90.2892 34.2557V43.4689C91.143 43.7535 91.9567 44.0304 92.7239 44.2902ZM32.088 37.2272C29.5805 39.7594 28.7947 43.0667 30.3292 44.6182C31.8683 46.1712 35.1415 45.3746 37.6459 42.8455C40.1519 40.3132 40.9377 37.006 39.4016 35.4545C37.864 33.903 34.5908 34.6981 32.088 37.2272Z" fill="#252525"/>
</svg>
