<svg width="192" height="82" viewBox="0 0 192 82" fill="none" xmlns="http://www.w3.org/2000/svg">
<path d="M31.7871 37H21.1641L10.2129 15.877H10.0283C10.0967 16.5195 10.1582 17.292 10.2129 18.1943C10.2676 19.0967 10.3154 20.0195 10.3564 20.9629C10.3975 21.8926 10.418 22.7334 10.418 23.4854V37H3.24023V7.01758H13.8223L24.7324 27.8535H24.8555C24.8145 27.1973 24.7734 26.4385 24.7324 25.5771C24.6914 24.7021 24.6504 23.8203 24.6094 22.9316C24.582 22.043 24.5684 21.2568 24.5684 20.5732V7.01758H31.7871V37ZM45.3149 13.3545C47.5707 13.3545 49.519 13.751 51.1596 14.5439C52.8002 15.3232 54.0649 16.499 54.9536 18.0713C55.8422 19.6436 56.2866 21.6123 56.2866 23.9775V27.5459H41.9516C42.02 28.7627 42.4711 29.7607 43.3051 30.54C44.1528 31.3193 45.3969 31.709 47.0375 31.709C48.4868 31.709 49.8129 31.5654 51.0161 31.2783C52.2329 30.9912 53.4838 30.5469 54.769 29.9453V35.708C53.6479 36.2959 52.4243 36.7266 51.0981 37C49.7719 37.2734 48.0971 37.4102 46.0737 37.4102C43.7358 37.4102 41.644 36.9932 39.7983 36.1592C37.9526 35.3252 36.4965 34.0332 35.4301 32.2832C34.3774 30.5332 33.851 28.2842 33.851 25.5361C33.851 22.7471 34.3295 20.457 35.2866 18.666C36.2436 16.8613 37.5834 15.5283 39.3061 14.667C41.0288 13.792 43.0317 13.3545 45.3149 13.3545ZM45.602 18.8096C44.6586 18.8096 43.8657 19.1104 43.2231 19.7119C42.5942 20.2998 42.225 21.2295 42.1157 22.501H49.0063C48.9926 21.8174 48.8559 21.1953 48.5961 20.6348C48.3364 20.0742 47.9536 19.6299 47.4477 19.3018C46.9555 18.9736 46.3403 18.8096 45.602 18.8096ZM77.8739 37L75.4335 26.8281C75.3104 26.3086 75.1874 25.7207 75.0643 25.0645C74.9413 24.3945 74.8182 23.7246 74.6952 23.0547C74.5858 22.3848 74.4901 21.7695 74.4081 21.209C74.3261 20.6484 74.2645 20.2109 74.2235 19.8965H74.1005C74.0595 20.2109 73.9911 20.6553 73.8954 21.2295C73.7997 21.79 73.6903 22.4121 73.5673 23.0957C73.4442 23.7793 73.3075 24.4766 73.1571 25.1875C73.0204 25.8848 72.8837 26.5342 72.747 27.1357L70.3886 37H61.9598L55.6229 13.7646H63.5184L65.4052 22.6855C65.5419 23.3418 65.6786 24.1279 65.8153 25.0439C65.9657 25.9463 66.0956 26.8691 66.205 27.8125C66.328 28.7422 66.41 29.5762 66.4511 30.3145H66.5741C66.6014 29.7539 66.663 29.1113 66.7587 28.3867C66.868 27.6484 66.9843 26.917 67.1073 26.1924C67.244 25.4678 67.3671 24.832 67.4764 24.2852C67.5858 23.7246 67.661 23.3418 67.702 23.1367L69.8554 13.7646H78.7147L80.6835 23.2598C80.8065 23.793 80.9432 24.4766 81.0936 25.3105C81.2577 26.1309 81.4081 26.9922 81.5448 27.8945C81.6952 28.7832 81.8046 29.5898 81.8729 30.3145H81.996C82.0507 29.5625 82.1327 28.708 82.2421 27.751C82.3514 26.7939 82.4745 25.8643 82.6112 24.9619C82.7616 24.0459 82.9052 23.2871 83.0419 22.6855L85.0927 13.7646H92.8241L86.4462 37H77.8739ZM112.312 18.1328L117.48 7.01758H126.258L116.393 25.29V37H108.231V25.5361L98.367 7.01758H107.185L112.312 18.1328ZM148.276 25.3311C148.276 27.2725 148.009 28.9951 147.476 30.499C146.943 32.0029 146.17 33.2676 145.158 34.293C144.147 35.3184 142.923 36.0977 141.488 36.6309C140.052 37.1504 138.432 37.4102 136.627 37.4102C134.946 37.4102 133.401 37.1504 131.992 36.6309C130.598 36.0977 129.381 35.3184 128.342 34.293C127.303 33.2676 126.496 32.0029 125.922 30.499C125.362 28.9951 125.081 27.2725 125.081 25.3311C125.081 22.7607 125.546 20.5869 126.476 18.8096C127.419 17.0322 128.759 15.6787 130.495 14.749C132.245 13.8193 134.33 13.3545 136.75 13.3545C138.979 13.3545 140.961 13.8193 142.697 14.749C144.434 15.6787 145.794 17.0322 146.779 18.8096C147.777 20.5869 148.276 22.7607 148.276 25.3311ZM133.223 25.3311C133.223 26.6572 133.339 27.7783 133.571 28.6943C133.804 29.5967 134.173 30.2871 134.679 30.7656C135.198 31.2305 135.875 31.4629 136.709 31.4629C137.543 31.4629 138.206 31.2305 138.698 30.7656C139.191 30.2871 139.546 29.5967 139.765 28.6943C139.997 27.7783 140.113 26.6572 140.113 25.3311C140.113 24.0049 139.997 22.8975 139.765 22.0088C139.546 21.1201 139.184 20.4502 138.678 19.999C138.186 19.5479 137.516 19.3223 136.668 19.3223C135.451 19.3223 134.57 19.8281 134.023 20.8398C133.489 21.8516 133.223 23.3486 133.223 25.3311ZM163.957 13.3545C164.394 13.3545 164.852 13.3887 165.331 13.457C165.809 13.5117 166.165 13.5596 166.397 13.6006L165.679 21.168C165.42 21.0996 165.085 21.0449 164.674 21.0039C164.264 20.9492 163.69 20.9219 162.952 20.9219C162.446 20.9219 161.906 20.9697 161.332 21.0654C160.757 21.1611 160.211 21.3662 159.691 21.6807C159.185 21.9814 158.768 22.4463 158.44 23.0752C158.112 23.6904 157.948 24.5244 157.948 25.5771V37H149.929V13.7646H155.897L157.148 17.4766H157.538C157.962 16.7109 158.502 16.0205 159.158 15.4053C159.828 14.7764 160.573 14.2773 161.393 13.9082C162.227 13.5391 163.082 13.3545 163.957 13.3545ZM174.777 5.08984V17.6406C174.777 18.584 174.736 19.6367 174.654 20.7988C174.586 21.9473 174.477 22.9932 174.326 23.9365H174.49C174.805 23.458 175.201 22.8564 175.68 22.1318C176.158 21.4072 176.589 20.8057 176.972 20.3271L182.181 13.7646H191.122L183.063 23.6494L191.635 37H182.468L177.382 28.6738L174.777 30.6631V37H166.718V5.08984H174.777Z" fill="#252525"/>
<path d="M16.2022 77L6.76533 52.1297H6.61158C6.66283 52.6551 6.70767 53.2957 6.74611 54.0517C6.78455 54.8077 6.81659 55.6341 6.84221 56.531C6.86784 57.4151 6.88065 58.3185 6.88065 59.241V77H3.84394V48.9008H8.6873L17.586 72.272H17.7206L26.7538 48.9008H31.5587V77H28.3298V59.0104C28.3298 58.1775 28.3426 57.3447 28.3683 56.5118C28.3939 55.6661 28.4259 54.8717 28.4644 54.1286C28.5028 53.3726 28.5412 52.7191 28.5797 52.1682H28.4259L18.8737 77H16.2022ZM54.8915 77H39.2466V48.9008H54.8915V51.7838H42.514V60.8747H54.1803V63.7192H42.514V74.117H54.8915V77ZM69.7483 77H66.4617V51.7838H57.6207V48.9008H78.5509V51.7838H69.7483V77ZM90.3902 48.9008C92.6966 48.9008 94.5993 49.1891 96.0985 49.7657C97.6104 50.3295 98.738 51.1944 99.4811 52.3603C100.224 53.5263 100.596 55.0127 100.596 56.8193C100.596 58.3056 100.327 59.5485 99.7887 60.5479C99.2505 61.5346 98.5458 62.3354 97.6745 62.9504C96.8032 63.5654 95.8743 64.0395 94.8876 64.3727L102.595 77H98.7892L91.9086 65.276H86.0658V77H82.7985V48.9008H90.3902ZM90.198 51.7261H86.0658V62.5083H90.5248C92.8183 62.5083 94.5032 62.0407 95.5796 61.1053C96.6687 60.17 97.2132 58.7925 97.2132 56.9731C97.2132 55.0639 96.6366 53.7121 95.4835 52.9177C94.3431 52.1233 92.5813 51.7261 90.198 51.7261ZM131.463 62.912C131.463 65.0774 131.187 67.0506 130.636 68.8316C130.085 70.5998 129.265 72.1246 128.176 73.4059C127.1 74.6744 125.761 75.6546 124.159 76.3465C122.558 77.0384 120.7 77.3844 118.586 77.3844C116.407 77.3844 114.505 77.0384 112.877 76.3465C111.263 75.6546 109.917 74.668 108.841 73.3867C107.778 72.1054 106.977 70.5742 106.439 68.7932C105.913 67.0122 105.651 65.0389 105.651 62.8735C105.651 60.0034 106.125 57.4856 107.073 55.3202C108.021 53.1548 109.456 51.4698 111.378 50.2654C113.313 49.061 115.735 48.4588 118.643 48.4588C121.424 48.4588 123.762 49.0546 125.658 50.2462C127.568 51.4378 129.009 53.1163 129.983 55.2817C130.969 57.4343 131.463 59.9778 131.463 62.912ZM109.091 62.912C109.091 65.2952 109.431 67.3581 110.11 69.1007C110.789 70.8433 111.827 72.1887 113.223 73.1368C114.633 74.085 116.42 74.5591 118.586 74.5591C120.764 74.5591 122.545 74.085 123.929 73.1368C125.325 72.1887 126.357 70.8433 127.023 69.1007C127.689 67.3581 128.022 65.2952 128.022 62.912C128.022 59.2858 127.26 56.4541 125.735 54.4169C124.223 52.3668 121.859 51.3417 118.643 51.3417C116.465 51.3417 114.671 51.8094 113.262 52.7447C111.852 53.6801 110.802 55.0127 110.11 56.7424C109.431 58.4594 109.091 60.5159 109.091 62.912Z" fill="#018FD7"/>
</svg>
