<svg width="137" height="82" viewBox="0 0 137 82" fill="none" xmlns="http://www.w3.org/2000/svg">
<path d="M22.8457 27.8945C22.8457 29.5215 22.4355 31.0664 21.6152 32.5293C20.7949 33.9785 19.5166 35.1543 17.7803 36.0566C16.0576 36.959 13.8291 37.4102 11.0947 37.4102C9.72754 37.4102 8.52441 37.3486 7.48535 37.2256C6.45996 37.1025 5.50293 36.9043 4.61426 36.6309C3.72559 36.3438 2.80273 35.9746 1.8457 35.5234V28.3047C3.47266 29.125 5.11328 29.7539 6.76758 30.1914C8.42188 30.6152 9.91895 30.8271 11.2588 30.8271C12.0654 30.8271 12.7217 30.7314 13.2275 30.54C13.7471 30.3486 14.1299 30.0889 14.376 29.7607C14.6221 29.4189 14.7451 29.0293 14.7451 28.5918C14.7451 28.0723 14.5605 27.6348 14.1914 27.2793C13.8359 26.9102 13.2617 26.5273 12.4688 26.1309C11.6758 25.7344 10.6299 25.2422 9.33105 24.6543C8.22363 24.1348 7.21875 23.6016 6.31641 23.0547C5.42773 22.5078 4.66211 21.8857 4.01953 21.1885C3.39062 20.4775 2.90527 19.6504 2.56348 18.707C2.22168 17.7637 2.05078 16.6494 2.05078 15.3643C2.05078 13.4365 2.52246 11.8232 3.46582 10.5244C4.42285 9.21191 5.74902 8.22754 7.44434 7.57129C9.15332 6.91504 11.1221 6.58691 13.3506 6.58691C15.3057 6.58691 17.0625 6.80566 18.6211 7.24316C20.1934 7.68066 21.6016 8.17969 22.8457 8.74023L20.3643 14.9951C19.0791 14.4072 17.8145 13.9424 16.5703 13.6006C15.3262 13.2451 14.1709 13.0674 13.1045 13.0674C12.4072 13.0674 11.833 13.1562 11.3818 13.334C10.9443 13.498 10.6162 13.7236 10.3975 14.0107C10.1924 14.2979 10.0898 14.626 10.0898 14.9951C10.0898 15.46 10.2676 15.877 10.623 16.2461C10.9922 16.6152 11.6006 17.0186 12.4482 17.4561C13.3096 17.8799 14.4785 18.4336 15.9551 19.1172C17.418 19.7734 18.6621 20.4844 19.6875 21.25C20.7129 22.002 21.4922 22.9111 22.0254 23.9775C22.5723 25.0303 22.8457 26.3359 22.8457 27.8945ZM34.5278 13.3545C36.7836 13.3545 38.7319 13.751 40.3725 14.5439C42.0131 15.3232 43.2778 16.499 44.1664 18.0713C45.0551 19.6436 45.4995 21.6123 45.4995 23.9775V27.5459H31.1645C31.2329 28.7627 31.684 29.7607 32.518 30.54C33.3657 31.3193 34.6098 31.709 36.2504 31.709C37.6996 31.709 39.0258 31.5654 40.2289 31.2783C41.4457 30.9912 42.6967 30.5469 43.9819 29.9453V35.708C42.8608 36.2959 41.6371 36.7266 40.311 37C38.9848 37.2734 37.31 37.4102 35.2866 37.4102C32.9487 37.4102 30.8569 36.9932 29.0112 36.1592C27.1655 35.3252 25.7094 34.0332 24.643 32.2832C23.5903 30.5332 23.0639 28.2842 23.0639 25.5361C23.0639 22.7471 23.5424 20.457 24.4995 18.666C25.4565 16.8613 26.7963 15.5283 28.519 14.667C30.2416 13.792 32.2446 13.3545 34.5278 13.3545ZM34.8149 18.8096C33.8715 18.8096 33.0786 19.1104 32.436 19.7119C31.8071 20.2998 31.4379 21.2295 31.3286 22.501H38.2192C38.2055 21.8174 38.0688 21.1953 37.809 20.6348C37.5493 20.0742 37.1664 19.6299 36.6606 19.3018C36.1684 18.9736 35.5532 18.8096 34.8149 18.8096ZM69.2811 25.3311C69.2811 27.2725 69.0145 28.9951 68.4813 30.499C67.9481 32.0029 67.1757 33.2676 66.1639 34.293C65.1522 35.3184 63.9286 36.0977 62.493 36.6309C61.0575 37.1504 59.4374 37.4102 57.6327 37.4102C55.9511 37.4102 54.4061 37.1504 52.9979 36.6309C51.6034 36.0977 50.3866 35.3184 49.3475 34.293C48.3085 33.2676 47.5018 32.0029 46.9276 30.499C46.3671 28.9951 46.0868 27.2725 46.0868 25.3311C46.0868 22.7607 46.5516 20.5869 47.4813 18.8096C48.4247 17.0322 49.7645 15.6787 51.5009 14.749C53.2509 13.8193 55.3358 13.3545 57.7557 13.3545C59.9843 13.3545 61.9667 13.8193 63.703 14.749C65.4393 15.6787 66.7997 17.0322 67.7841 18.8096C68.7821 20.5869 69.2811 22.7607 69.2811 25.3311ZM54.2284 25.3311C54.2284 26.6572 54.3446 27.7783 54.577 28.6943C54.8095 29.5967 55.1786 30.2871 55.6845 30.7656C56.204 31.2305 56.8807 31.4629 57.7147 31.4629C58.5487 31.4629 59.2118 31.2305 59.704 30.7656C60.1962 30.2871 60.5516 29.5967 60.7704 28.6943C61.0028 27.7783 61.119 26.6572 61.119 25.3311C61.119 24.0049 61.0028 22.8975 60.7704 22.0088C60.5516 21.1201 60.1893 20.4502 59.6835 19.999C59.1913 19.5479 58.5214 19.3223 57.6737 19.3223C56.4569 19.3223 55.5751 19.8281 55.0282 20.8398C54.495 21.8516 54.2284 23.3486 54.2284 25.3311ZM93.5345 13.7646V37H87.4847L86.4798 34.1084H86.0081C85.5296 34.8877 84.9212 35.5234 84.1829 36.0156C83.4583 36.4941 82.6517 36.8428 81.763 37.0615C80.8743 37.2939 79.9515 37.4102 78.9945 37.4102C77.4769 37.4102 76.1029 37.1162 74.8724 36.5283C73.6556 35.9404 72.6849 35.0176 71.9603 33.7598C71.2493 32.502 70.8939 30.8818 70.8939 28.8994V13.7646H78.9124V26.459C78.9124 27.9629 79.1243 29.1113 79.5482 29.9043C79.9857 30.6836 80.6966 31.0732 81.681 31.0732C82.6927 31.0732 83.472 30.7998 84.0189 30.2529C84.5794 29.7061 84.9691 28.8994 85.1878 27.833C85.4066 26.7666 85.5159 25.4678 85.5159 23.9365V13.7646H93.5345ZM104.15 37H96.1316V5.08984H104.15V37Z" fill="#252525"/>
<path d="M16.2022 77L6.76533 52.1297H6.61158C6.66283 52.6551 6.70767 53.2957 6.74611 54.0517C6.78455 54.8077 6.81659 55.6341 6.84221 56.531C6.86784 57.4151 6.88065 58.3185 6.88065 59.241V77H3.84394V48.9008H8.6873L17.586 72.272H17.7206L26.7538 48.9008H31.5587V77H28.3298V59.0104C28.3298 58.1775 28.3426 57.3447 28.3683 56.5118C28.3939 55.6661 28.4259 54.8717 28.4644 54.1286C28.5028 53.3726 28.5412 52.7191 28.5797 52.1682H28.4259L18.8737 77H16.2022ZM54.8915 77H39.2466V48.9008H54.8915V51.7838H42.514V60.8747H54.1803V63.7192H42.514V74.117H54.8915V77ZM69.7483 77H66.4617V51.7838H57.6207V48.9008H78.5509V51.7838H69.7483V77ZM90.3902 48.9008C92.6966 48.9008 94.5993 49.1891 96.0985 49.7657C97.6104 50.3295 98.738 51.1944 99.4811 52.3603C100.224 53.5263 100.596 55.0127 100.596 56.8193C100.596 58.3056 100.327 59.5485 99.7887 60.5479C99.2505 61.5346 98.5458 62.3354 97.6745 62.9504C96.8032 63.5654 95.8743 64.0395 94.8876 64.3727L102.595 77H98.7892L91.9086 65.276H86.0658V77H82.7985V48.9008H90.3902ZM90.198 51.7261H86.0658V62.5083H90.5248C92.8183 62.5083 94.5032 62.0407 95.5796 61.1053C96.6687 60.17 97.2132 58.7925 97.2132 56.9731C97.2132 55.0639 96.6366 53.7121 95.4835 52.9177C94.3431 52.1233 92.5813 51.7261 90.198 51.7261ZM131.463 62.912C131.463 65.0774 131.187 67.0506 130.636 68.8316C130.085 70.5998 129.265 72.1246 128.176 73.4059C127.1 74.6744 125.761 75.6546 124.159 76.3465C122.558 77.0384 120.7 77.3844 118.586 77.3844C116.407 77.3844 114.505 77.0384 112.877 76.3465C111.263 75.6546 109.917 74.668 108.841 73.3867C107.778 72.1054 106.977 70.5742 106.439 68.7932C105.913 67.0122 105.651 65.0389 105.651 62.8735C105.651 60.0034 106.125 57.4856 107.073 55.3202C108.021 53.1548 109.456 51.4698 111.378 50.2654C113.313 49.061 115.735 48.4588 118.643 48.4588C121.424 48.4588 123.762 49.0546 125.658 50.2462C127.568 51.4378 129.009 53.1163 129.983 55.2817C130.969 57.4343 131.463 59.9778 131.463 62.912ZM109.091 62.912C109.091 65.2952 109.431 67.3581 110.11 69.1007C110.789 70.8433 111.827 72.1887 113.223 73.1368C114.633 74.085 116.42 74.5591 118.586 74.5591C120.764 74.5591 122.545 74.085 123.929 73.1368C125.325 72.1887 126.357 70.8433 127.023 69.1007C127.689 67.3581 128.022 65.2952 128.022 62.912C128.022 59.2858 127.26 56.4541 125.735 54.4169C124.223 52.3668 121.859 51.3417 118.643 51.3417C116.465 51.3417 114.671 51.8094 113.262 52.7447C111.852 53.6801 110.802 55.0127 110.11 56.7424C109.431 58.4594 109.091 60.5159 109.091 62.912Z" fill="#018FD7"/>
</svg>
