<svg width="173" height="82" viewBox="0 0 173 82" fill="none" xmlns="http://www.w3.org/2000/svg">
<path d="M3.24023 7.01758H13.6992C18.0332 7.01758 21.123 7.66016 22.9688 8.94531C24.8145 10.2305 25.7373 12.0762 25.7373 14.4824C25.7373 15.7949 25.498 16.9092 25.0195 17.8252C24.5547 18.7412 23.96 19.4658 23.2354 19.999C22.5244 20.5322 21.793 20.8945 21.041 21.0859V21.291C21.8613 21.4961 22.6748 21.8379 23.4814 22.3164C24.3018 22.7812 24.9785 23.4854 25.5117 24.4287C26.0586 25.3584 26.332 26.623 26.332 28.2227C26.332 30.041 25.8672 31.6064 24.9375 32.9189C24.0215 34.2314 22.709 35.2432 21 35.9541C19.291 36.6514 17.2607 37 14.9092 37H3.24023V7.01758ZM11.3408 18.5225H13.7812C15.1211 18.5225 16.0645 18.249 16.6113 17.7021C17.1582 17.1416 17.4316 16.4648 17.4316 15.6719C17.4316 14.8516 17.1172 14.2295 16.4883 13.8057C15.873 13.3682 14.916 13.1494 13.6172 13.1494H11.3408V18.5225ZM11.3408 24.4492V30.7451H14.1914C15.5996 30.7451 16.584 30.4443 17.1445 29.8428C17.7051 29.2275 17.9854 28.4619 17.9854 27.5459C17.9854 27.0127 17.8623 26.5137 17.6162 26.0488C17.3838 25.5703 16.9805 25.1875 16.4062 24.9004C15.832 24.5996 15.0391 24.4492 14.0273 24.4492H11.3408ZM39.4702 13.3545C42.4096 13.3545 44.7065 14.0859 46.3608 15.5488C48.0151 16.998 48.8422 19.0693 48.8422 21.7627V37H43.2846L41.7465 33.9238H41.5825C40.9262 34.7441 40.2495 35.4141 39.5522 35.9336C38.8686 36.4395 38.0825 36.8086 37.1938 37.041C36.3051 37.2871 35.2182 37.4102 33.933 37.4102C32.5932 37.4102 31.3901 37.1367 30.3237 36.5898C29.2573 36.043 28.4164 35.2158 27.8012 34.1084C27.186 33.001 26.8784 31.5996 26.8784 29.9043C26.8784 27.416 27.7397 25.5703 29.4623 24.3672C31.185 23.1641 33.6801 22.4873 36.9477 22.3369L40.8237 22.2139V21.8857C40.8237 20.8467 40.5639 20.1084 40.0444 19.6709C39.5385 19.2334 38.8549 19.0146 37.9936 19.0146C37.0776 19.0146 36.0522 19.1787 34.9174 19.5068C33.7963 19.8213 32.6684 20.2314 31.5336 20.7373L29.2162 15.4463C30.5561 14.7627 32.0737 14.2432 33.769 13.8877C35.4643 13.5322 37.3647 13.3545 39.4702 13.3545ZM40.8647 26.623L39.019 26.7051C37.5424 26.7598 36.5034 27.0195 35.9018 27.4844C35.3139 27.9355 35.02 28.585 35.02 29.4326C35.02 30.2256 35.2319 30.8135 35.6557 31.1963C36.0795 31.5654 36.6401 31.75 37.3373 31.75C38.308 31.75 39.1352 31.4424 39.8188 30.8271C40.5161 30.2119 40.8647 29.4121 40.8647 28.4277V26.623ZM65.8973 13.3545C68.2899 13.3545 70.245 14.0312 71.7626 15.3848C73.2802 16.7383 74.0389 18.9053 74.0389 21.8857V37H66.0204V24.3262C66.0204 22.7812 65.7948 21.6191 65.3436 20.8398C64.9061 20.0469 64.1952 19.6504 63.2108 19.6504C61.6932 19.6504 60.6747 20.2725 60.1552 21.5166C59.6356 22.7471 59.3759 24.5176 59.3759 26.8281V37H51.3573V13.7646H57.4071L58.494 16.8408H58.8016C59.2938 16.1025 59.8817 15.4736 60.5653 14.9541C61.2489 14.4346 62.035 14.0381 62.9237 13.7646C63.8124 13.4912 64.8036 13.3545 65.8973 13.3545ZM84.4905 47.0898C81.1956 47.0898 78.6527 46.5361 76.8616 45.4287C75.0843 44.335 74.1956 42.7559 74.1956 40.6914C74.1956 39.3105 74.6263 38.1689 75.4876 37.2666C76.3489 36.3643 77.6409 35.7148 79.3636 35.3184C78.6527 35.0176 78.0306 34.5322 77.4974 33.8623C76.9779 33.1924 76.7181 32.5293 76.7181 31.873C76.7181 31.1484 76.9163 30.5127 77.3128 29.9658C77.7093 29.4053 78.5364 28.7422 79.7943 27.9766C78.5911 27.4434 77.6409 26.6094 76.9437 25.4746C76.2601 24.3398 75.9183 22.959 75.9183 21.332C75.9183 19.6504 76.3011 18.2148 77.0667 17.0254C77.846 15.8359 78.9739 14.9268 80.4505 14.2979C81.9407 13.6689 83.7523 13.3545 85.8851 13.3545C86.1722 13.3545 86.6097 13.3818 87.1976 13.4365C87.7855 13.4775 88.3802 13.5322 88.9818 13.6006C89.5833 13.6553 90.0482 13.71 90.3763 13.7646H98.4769V17.6406L95.2982 18.8096C95.5169 19.2061 95.681 19.6367 95.7904 20.1016C95.8997 20.5664 95.9544 21.0586 95.9544 21.5781C95.9544 24.0801 95.0726 26.0215 93.3089 27.4023C91.5589 28.7832 88.9407 29.4736 85.4544 29.4736C84.5931 29.4736 83.9095 29.4189 83.4036 29.3096C83.3079 29.4873 83.2327 29.665 83.178 29.8428C83.137 30.0068 83.1165 30.1641 83.1165 30.3145C83.1165 30.6289 83.3011 30.8818 83.6702 31.0732C84.053 31.251 84.5111 31.374 85.0443 31.4424C85.5911 31.5107 86.1107 31.5449 86.6029 31.5449H90.4583C93.0696 31.5449 95.0247 32.0918 96.3236 33.1855C97.6224 34.2793 98.2718 35.9268 98.2718 38.1279C98.2718 40.958 97.0618 43.1592 94.6419 44.7314C92.2357 46.3037 88.8519 47.0898 84.4905 47.0898ZM84.8802 42.0859C85.8509 42.0859 86.8284 41.9971 87.8128 41.8193C88.7972 41.6553 89.6243 41.3818 90.2943 40.999C90.9642 40.6162 91.2991 40.1104 91.2991 39.4814C91.2991 39.0029 91.1009 38.6406 90.7044 38.3945C90.3079 38.1621 89.7952 38.0049 89.1663 37.9229C88.5374 37.8408 87.8743 37.7998 87.1771 37.7998H84.0599C83.4857 37.7998 82.9593 37.8887 82.4808 38.0664C82.0159 38.2578 81.6468 38.5107 81.3734 38.8252C81.0999 39.1396 80.9632 39.4951 80.9632 39.8916C80.9632 40.5479 81.3187 41.0742 82.0296 41.4707C82.7405 41.8809 83.6907 42.0859 84.8802 42.0859ZM85.9671 24.9414C86.7327 24.9414 87.3206 24.6475 87.7308 24.0596C88.1546 23.4717 88.3665 22.5898 88.3665 21.4141C88.3665 20.2109 88.1683 19.3086 87.7718 18.707C87.3753 18.1055 86.7738 17.8047 85.9671 17.8047C85.1331 17.8047 84.5111 18.1055 84.1009 18.707C83.6907 19.2949 83.4857 20.1836 83.4857 21.373C83.4857 22.5625 83.6907 23.458 84.1009 24.0596C84.5111 24.6475 85.1331 24.9414 85.9671 24.9414ZM107.144 5.08984V17.6406C107.144 18.584 107.103 19.6367 107.021 20.7988C106.953 21.9473 106.844 22.9932 106.693 23.9365H106.857C107.172 23.458 107.568 22.8564 108.047 22.1318C108.525 21.4072 108.956 20.8057 109.339 20.3271L114.548 13.7646H123.489L115.429 23.6494L124.002 37H114.835L109.749 28.6738L107.144 30.6631V37H99.0847V5.08984H107.144ZM146.02 25.3311C146.02 27.2725 145.753 28.9951 145.22 30.499C144.687 32.0029 143.914 33.2676 142.903 34.293C141.891 35.3184 140.667 36.0977 139.232 36.6309C137.796 37.1504 136.176 37.4102 134.371 37.4102C132.69 37.4102 131.145 37.1504 129.737 36.6309C128.342 36.0977 127.125 35.3184 126.086 34.293C125.047 33.2676 124.24 32.0029 123.666 30.499C123.106 28.9951 122.825 27.2725 122.825 25.3311C122.825 22.7607 123.29 20.5869 124.22 18.8096C125.163 17.0322 126.503 15.6787 128.239 14.749C129.989 13.8193 132.074 13.3545 134.494 13.3545C136.723 13.3545 138.705 13.8193 140.442 14.749C142.178 15.6787 143.538 17.0322 144.523 18.8096C145.521 20.5869 146.02 22.7607 146.02 25.3311ZM130.967 25.3311C130.967 26.6572 131.083 27.7783 131.316 28.6943C131.548 29.5967 131.917 30.2871 132.423 30.7656C132.943 31.2305 133.619 31.4629 134.453 31.4629C135.287 31.4629 135.95 31.2305 136.443 30.7656C136.935 30.2871 137.29 29.5967 137.509 28.6943C137.741 27.7783 137.858 26.6572 137.858 25.3311C137.858 24.0049 137.741 22.8975 137.509 22.0088C137.29 21.1201 136.928 20.4502 136.422 19.999C135.93 19.5479 135.26 19.3223 134.412 19.3223C133.196 19.3223 132.314 19.8281 131.767 20.8398C131.234 21.8516 130.967 23.3486 130.967 25.3311ZM155.733 5.08984V17.6406C155.733 18.584 155.692 19.6367 155.61 20.7988C155.542 21.9473 155.432 22.9932 155.282 23.9365H155.446C155.76 23.458 156.157 22.8564 156.635 22.1318C157.114 21.4072 157.545 20.8057 157.927 20.3271L163.136 13.7646H172.078L164.018 23.6494L172.59 37H163.423L158.338 28.6738L155.733 30.6631V37H147.673V5.08984H155.733Z" fill="#252525"/>
<path d="M16.2022 77L6.76533 52.1297H6.61158C6.66283 52.6551 6.70767 53.2957 6.74611 54.0517C6.78455 54.8077 6.81659 55.6341 6.84221 56.531C6.86784 57.4151 6.88065 58.3185 6.88065 59.241V77H3.84394V48.9008H8.6873L17.586 72.272H17.7206L26.7538 48.9008H31.5587V77H28.3298V59.0104C28.3298 58.1775 28.3426 57.3447 28.3683 56.5118C28.3939 55.6661 28.4259 54.8717 28.4644 54.1286C28.5028 53.3726 28.5412 52.7191 28.5797 52.1682H28.4259L18.8737 77H16.2022ZM54.8915 77H39.2466V48.9008H54.8915V51.7838H42.514V60.8747H54.1803V63.7192H42.514V74.117H54.8915V77ZM69.7483 77H66.4617V51.7838H57.6207V48.9008H78.5509V51.7838H69.7483V77ZM90.3902 48.9008C92.6966 48.9008 94.5993 49.1891 96.0985 49.7657C97.6104 50.3295 98.738 51.1944 99.4811 52.3603C100.224 53.5263 100.596 55.0127 100.596 56.8193C100.596 58.3056 100.327 59.5485 99.7887 60.5479C99.2505 61.5346 98.5458 62.3354 97.6745 62.9504C96.8032 63.5654 95.8743 64.0395 94.8876 64.3727L102.595 77H98.7892L91.9086 65.276H86.0658V77H82.7985V48.9008H90.3902ZM90.198 51.7261H86.0658V62.5083H90.5248C92.8183 62.5083 94.5032 62.0407 95.5796 61.1053C96.6687 60.17 97.2132 58.7925 97.2132 56.9731C97.2132 55.0639 96.6366 53.7121 95.4835 52.9177C94.3431 52.1233 92.5813 51.7261 90.198 51.7261ZM131.463 62.912C131.463 65.0774 131.187 67.0506 130.636 68.8316C130.085 70.5998 129.265 72.1246 128.176 73.4059C127.1 74.6744 125.761 75.6546 124.159 76.3465C122.558 77.0384 120.7 77.3844 118.586 77.3844C116.407 77.3844 114.505 77.0384 112.877 76.3465C111.263 75.6546 109.917 74.668 108.841 73.3867C107.778 72.1054 106.977 70.5742 106.439 68.7932C105.913 67.0122 105.651 65.0389 105.651 62.8735C105.651 60.0034 106.125 57.4856 107.073 55.3202C108.021 53.1548 109.456 51.4698 111.378 50.2654C113.313 49.061 115.735 48.4588 118.643 48.4588C121.424 48.4588 123.762 49.0546 125.658 50.2462C127.568 51.4378 129.009 53.1163 129.983 55.2817C130.969 57.4343 131.463 59.9778 131.463 62.912ZM109.091 62.912C109.091 65.2952 109.431 67.3581 110.11 69.1007C110.789 70.8433 111.827 72.1887 113.223 73.1368C114.633 74.085 116.42 74.5591 118.586 74.5591C120.764 74.5591 122.545 74.085 123.929 73.1368C125.325 72.1887 126.357 70.8433 127.023 69.1007C127.689 67.3581 128.022 65.2952 128.022 62.912C128.022 59.2858 127.26 56.4541 125.735 54.4169C124.223 52.3668 121.859 51.3417 118.643 51.3417C116.465 51.3417 114.671 51.8094 113.262 52.7447C111.852 53.6801 110.802 55.0127 110.11 56.7424C109.431 58.4594 109.091 60.5159 109.091 62.912Z" fill="#018FD7"/>
</svg>
