<svg width="16" height="16" viewBox="0 0 16 16" fill="none" xmlns="http://www.w3.org/2000/svg">
<path d="M8.00015 8.83347C7.76404 8.83347 7.56626 8.75347 7.40682 8.59347C7.24737 8.43347 7.16737 8.23569 7.16682 8.00014C7.16682 7.76403 7.24682 7.56625 7.40682 7.4068C7.56682 7.24736 7.7646 7.16736 8.00015 7.1668C8.23626 7.1668 8.43432 7.2468 8.59432 7.4068C8.75432 7.5668 8.83404 7.76458 8.83348 8.00014C8.83348 8.23625 8.75348 8.4343 8.59348 8.5943C8.43349 8.7543 8.23571 8.83403 8.00015 8.83347ZM8.00265 15.5001C6.96599 15.5001 5.99099 15.3035 5.07765 14.9101C4.16487 14.5162 3.37071 13.9818 2.69515 13.3068C2.0196 12.6324 1.48487 11.839 1.09099 10.9268C0.697097 10.0146 0.500153 9.03986 0.500153 8.00264C0.500153 6.96597 0.696819 5.99097 1.09015 5.07764C1.48404 4.16486 2.01849 3.37069 2.69349 2.69514C3.36793 2.01958 4.16126 1.48486 5.07349 1.09097C5.98571 0.697082 6.96043 0.500137 7.99765 0.500137C9.03432 0.500137 10.0093 0.696804 10.9227 1.09014C11.8354 1.48403 12.6296 2.01847 13.3052 2.69347C13.9807 3.36791 14.5154 4.16125 14.9093 5.07347C15.3032 5.98569 15.5002 6.96041 15.5002 7.99764C15.5002 9.0343 15.3035 10.0093 14.9102 10.9226C14.5163 11.8354 13.9818 12.6296 13.3068 13.3051C12.6324 13.9807 11.839 14.5154 10.9268 14.9093C10.0146 15.3032 9.03987 15.5001 8.00265 15.5001ZM8.00015 14.6668C9.86126 14.6668 11.4377 14.021 12.7293 12.7293C14.021 11.4376 14.6668 9.86125 14.6668 8.00014C14.6668 6.13903 14.021 4.56264 12.7293 3.27097C11.4377 1.9793 9.86126 1.33347 8.00015 1.33347C6.13904 1.33347 4.56265 1.9793 3.27099 3.27097C1.97932 4.56264 1.33349 6.13903 1.33349 8.00014C1.33349 9.86125 1.97932 11.4376 3.27099 12.7293C4.56265 14.021 6.13904 14.6668 8.00015 14.6668ZM4.89265 11.5401L9.04265 9.31097C9.10487 9.27986 9.15765 9.24291 9.20098 9.20014C9.24321 9.15736 9.27987 9.10514 9.31098 9.04347L11.5402 4.89347C11.6202 4.75458 11.6049 4.63014 11.4943 4.52014C11.3838 4.41069 11.2549 4.39069 11.1077 4.46014L6.95765 6.6893C6.89543 6.72041 6.84265 6.75736 6.79932 6.80014C6.7571 6.84291 6.72043 6.89514 6.68932 6.9568L4.46015 11.1068C4.38015 11.2568 4.39487 11.3865 4.50432 11.496C4.61376 11.6054 4.74321 11.6201 4.89265 11.5401Z" fill="#018FD7"/>
</svg>
