<svg width="17" height="22" viewBox="0 0 17 22" fill="none" xmlns="http://www.w3.org/2000/svg">
<path d="M8.5 16.0139C8.67243 16.0139 8.81693 15.9572 8.9335 15.8438C9.04926 15.7296 9.10714 15.5884 9.10714 15.4203V9.88422C9.10714 9.71531 9.04886 9.57415 8.93229 9.46075C8.81571 9.34655 8.67121 9.28945 8.49879 9.28945C8.32636 9.28945 8.18226 9.34655 8.0665 9.46075C7.95074 9.57415 7.89286 9.71531 7.89286 9.88422V15.4203C7.89286 15.5884 7.95114 15.7296 8.06771 15.8438C8.18429 15.958 8.32879 16.0151 8.50121 16.0151M8.5 7.41356C8.7121 7.41356 8.88938 7.34338 9.03186 7.20301C9.17514 7.06265 9.24679 6.88898 9.24679 6.682C9.24679 6.47423 9.17514 6.30016 9.03186 6.15979C8.88938 6.01943 8.7121 5.94925 8.5 5.94925C8.2879 5.94925 8.11062 6.01943 7.96814 6.15979C7.82486 6.30016 7.75321 6.47423 7.75321 6.682C7.75321 6.88898 7.82486 7.06265 7.96814 7.20301C8.11062 7.34338 8.2879 7.41356 8.5 7.41356ZM8.5 21.5C8.3891 21.5 8.27293 21.4901 8.1515 21.4703C8.03007 21.4504 7.91674 21.4207 7.8115 21.381C5.42098 20.4889 3.52143 18.9758 2.11286 16.8418C0.704286 14.7078 0 12.3977 0 9.91158V4.81681C0 4.4092 0.118596 4.04203 0.355786 3.71531C0.592976 3.38858 0.899381 3.15186 1.275 3.00515L7.81393 0.62609C8.05031 0.54203 8.279 0.5 8.5 0.5C8.721 0.5 8.94969 0.54203 9.18607 0.62609L15.725 3.00515C16.1006 3.15186 16.407 3.38858 16.6442 3.71531C16.8814 4.04203 17 4.4092 17 4.81681V9.91158C17 12.3977 16.2957 14.7078 14.8871 16.8418C13.4786 18.9758 11.5794 20.4889 9.18971 21.381C9.08367 21.4207 8.96993 21.4504 8.8485 21.4703C8.72707 21.4901 8.6109 21.5 8.5 21.5ZM8.5 20.3795C10.6048 19.7252 12.3452 18.4167 13.7214 16.454C15.0976 14.4913 15.7857 12.3105 15.7857 9.91158V4.79421C15.7857 4.64195 15.7428 4.50476 15.657 4.38263C15.5712 4.26051 15.4506 4.16931 15.2951 4.10904L8.75743 1.72998C8.6789 1.69826 8.5931 1.6824 8.5 1.6824C8.40691 1.6824 8.3211 1.69826 8.24257 1.72998L1.70486 4.10904C1.54943 4.16931 1.42881 4.26051 1.343 4.38263C1.25719 4.50476 1.21429 4.64195 1.21429 4.79421V9.91158C1.21429 12.3105 1.90238 14.4913 3.27857 16.454C4.65476 18.4167 6.39524 19.7252 8.5 20.3795Z" fill="#018FD7"/>
</svg>
