<svg width="137" height="74" viewBox="0 0 137 74" fill="none" xmlns="http://www.w3.org/2000/svg">
<path d="M43.0049 7.01758L35.6221 37H26.0449L23.1738 23.9365C23.1191 23.6904 23.0303 23.2734 22.9072 22.6855C22.7979 22.0977 22.668 21.4277 22.5176 20.6758C22.3809 19.9238 22.251 19.1855 22.1279 18.4609C22.0186 17.7227 21.9365 17.1006 21.8818 16.5947C21.8271 17.1006 21.7383 17.7227 21.6152 18.4609C21.4922 19.1855 21.3555 19.9238 21.2051 20.6758C21.0684 21.4277 20.9316 22.0977 20.7949 22.6855C20.6719 23.2734 20.583 23.6904 20.5283 23.9365L17.6367 37H8.05957L0.635742 7.01758H8.44922L11.71 22.0498C11.792 22.4189 11.9014 22.9453 12.0381 23.6289C12.1885 24.2988 12.3389 25.0371 12.4893 25.8438C12.6533 26.6367 12.8037 27.4023 12.9404 28.1406C13.0771 28.8789 13.1729 29.4941 13.2275 29.9863C13.3369 29.1387 13.4805 28.1748 13.6582 27.0947C13.8496 26.0146 14.0547 24.9209 14.2734 23.8135C14.5059 22.6924 14.7246 21.6533 14.9297 20.6963C15.1348 19.7393 15.3125 18.96 15.4629 18.3584L18.1084 7.01758H25.6143L28.1777 18.3584C28.3145 18.9463 28.4854 19.7256 28.6904 20.6963C28.9092 21.6533 29.1279 22.6924 29.3467 23.8135C29.5791 24.9346 29.791 26.042 29.9824 27.1357C30.1738 28.2158 30.3174 29.166 30.4131 29.9863C30.4951 29.3027 30.6318 28.4414 30.8232 27.4023C31.0146 26.3496 31.2061 25.3311 31.3975 24.3467C31.6025 23.3486 31.7598 22.5967 31.8691 22.0908L35.1914 7.01758H43.0049ZM68.5986 25.3311C68.5986 27.2725 68.332 28.9951 67.7988 30.499C67.2656 32.0029 66.4932 33.2676 65.4814 34.293C64.4697 35.3184 63.2461 36.0977 61.8105 36.6309C60.375 37.1504 58.7549 37.4102 56.9502 37.4102C55.2686 37.4102 53.7236 37.1504 52.3154 36.6309C50.9209 36.0977 49.7041 35.3184 48.665 34.293C47.626 33.2676 46.8193 32.0029 46.2451 30.499C45.6846 28.9951 45.4043 27.2725 45.4043 25.3311C45.4043 22.7607 45.8691 20.5869 46.7988 18.8096C47.7422 17.0322 49.082 15.6787 50.8184 14.749C52.5684 13.8193 54.6533 13.3545 57.0732 13.3545C59.3018 13.3545 61.2842 13.8193 63.0205 14.749C64.7568 15.6787 66.1172 17.0322 67.1016 18.8096C68.0996 20.5869 68.5986 22.7607 68.5986 25.3311ZM53.5459 25.3311C53.5459 26.6572 53.6621 27.7783 53.8945 28.6943C54.127 29.5967 54.4961 30.2871 55.002 30.7656C55.5215 31.2305 56.1982 31.4629 57.0322 31.4629C57.8662 31.4629 58.5293 31.2305 59.0215 30.7656C59.5137 30.2871 59.8691 29.5967 60.0879 28.6943C60.3203 27.7783 60.4365 26.6572 60.4365 25.3311C60.4365 24.0049 60.3203 22.8975 60.0879 22.0088C59.8691 21.1201 59.5068 20.4502 59.001 19.999C58.5088 19.5479 57.8389 19.3223 56.9912 19.3223C55.7744 19.3223 54.8926 19.8281 54.3457 20.8398C53.8125 21.8516 53.5459 23.3486 53.5459 25.3311ZM87.2197 13.3545C87.6572 13.3545 88.1152 13.3887 88.5938 13.457C89.0723 13.5117 89.4277 13.5596 89.6602 13.6006L88.9424 21.168C88.6826 21.0996 88.3477 21.0449 87.9375 21.0039C87.5273 20.9492 86.9531 20.9219 86.2148 20.9219C85.709 20.9219 85.1689 20.9697 84.5947 21.0654C84.0205 21.1611 83.4736 21.3662 82.9541 21.6807C82.4482 21.9814 82.0312 22.4463 81.7031 23.0752C81.375 23.6904 81.2109 24.5244 81.2109 25.5771V37H73.1924V13.7646H79.1602L80.4111 17.4766H80.8008C81.2246 16.7109 81.7646 16.0205 82.4209 15.4053C83.0908 14.7764 83.8359 14.2773 84.6562 13.9082C85.4902 13.5391 86.3447 13.3545 87.2197 13.3545ZM100.939 37H92.9209V5.08984H100.939V37ZM113.716 37.4102C111.323 37.4102 109.354 36.3916 107.81 34.3545C106.265 32.3174 105.492 29.3369 105.492 25.4131C105.492 21.4482 106.285 18.4473 107.871 16.4102C109.457 14.373 111.508 13.3545 114.023 13.3545C115.062 13.3545 115.958 13.5049 116.71 13.8057C117.462 14.1064 118.111 14.5166 118.658 15.0361C119.219 15.542 119.704 16.1162 120.114 16.7588H120.278C120.183 16.1709 120.094 15.3643 120.012 14.3389C119.93 13.2998 119.889 12.2881 119.889 11.3037V5.08984H127.969V37H121.919L120.196 34.0674H119.889C119.52 34.6826 119.055 35.2432 118.494 35.749C117.947 36.2549 117.277 36.6582 116.484 36.959C115.705 37.2598 114.782 37.4102 113.716 37.4102ZM116.997 31.0732C118.282 31.0732 119.185 30.6699 119.704 29.8633C120.237 29.043 120.524 27.7988 120.565 26.1309V25.4951C120.565 23.6631 120.306 22.2617 119.786 21.291C119.28 20.3066 118.323 19.8145 116.915 19.8145C115.958 19.8145 115.165 20.2793 114.536 21.209C113.907 22.1387 113.593 23.5811 113.593 25.5361C113.593 27.4639 113.907 28.8721 114.536 29.7607C115.179 30.6357 115.999 31.0732 116.997 31.0732Z" fill="#252525"/>
<path d="M16.2022 69L6.76533 44.1297H6.61158C6.66283 44.6551 6.70767 45.2957 6.74611 46.0517C6.78455 46.8077 6.81659 47.6341 6.84221 48.531C6.86784 49.4151 6.88065 50.3185 6.88065 51.241V69H3.84394V40.9008H8.6873L17.586 64.272H17.7206L26.7538 40.9008H31.5587V69H28.3298V51.0104C28.3298 50.1775 28.3426 49.3447 28.3683 48.5118C28.3939 47.6661 28.4259 46.8717 28.4644 46.1286C28.5028 45.3726 28.5412 44.7191 28.5797 44.1682H28.4259L18.8737 69H16.2022ZM54.8915 69H39.2466V40.9008H54.8915V43.7838H42.514V52.8747H54.1803V55.7192H42.514V66.117H54.8915V69ZM69.7483 69H66.4617V43.7838H57.6207V40.9008H78.5509V43.7838H69.7483V69ZM90.3902 40.9008C92.6966 40.9008 94.5993 41.1891 96.0985 41.7657C97.6104 42.3295 98.738 43.1944 99.4811 44.3603C100.224 45.5263 100.596 47.0127 100.596 48.8193C100.596 50.3056 100.327 51.5485 99.7887 52.5479C99.2505 53.5346 98.5458 54.3354 97.6745 54.9504C96.8032 55.5654 95.8743 56.0395 94.8876 56.3727L102.595 69H98.7892L91.9086 57.276H86.0658V69H82.7985V40.9008H90.3902ZM90.198 43.7261H86.0658V54.5083H90.5248C92.8183 54.5083 94.5032 54.0407 95.5796 53.1053C96.6687 52.17 97.2132 50.7925 97.2132 48.9731C97.2132 47.0639 96.6366 45.7121 95.4835 44.9177C94.3431 44.1233 92.5813 43.7261 90.198 43.7261ZM131.463 54.912C131.463 57.0774 131.187 59.0506 130.636 60.8316C130.085 62.5998 129.265 64.1246 128.176 65.4059C127.1 66.6744 125.761 67.6546 124.159 68.3465C122.558 69.0384 120.7 69.3844 118.586 69.3844C116.407 69.3844 114.505 69.0384 112.877 68.3465C111.263 67.6546 109.917 66.668 108.841 65.3867C107.778 64.1054 106.977 62.5742 106.439 60.7932C105.913 59.0122 105.651 57.0389 105.651 54.8735C105.651 52.0034 106.125 49.4856 107.073 47.3202C108.021 45.1548 109.456 43.4698 111.378 42.2654C113.313 41.061 115.735 40.4588 118.643 40.4588C121.424 40.4588 123.762 41.0546 125.658 42.2462C127.568 43.4378 129.009 45.1163 129.983 47.2817C130.969 49.4343 131.463 51.9778 131.463 54.912ZM109.091 54.912C109.091 57.2952 109.431 59.3581 110.11 61.1007C110.789 62.8433 111.827 64.1887 113.223 65.1368C114.633 66.085 116.42 66.5591 118.586 66.5591C120.764 66.5591 122.545 66.085 123.929 65.1368C125.325 64.1887 126.357 62.8433 127.023 61.1007C127.689 59.3581 128.022 57.2952 128.022 54.912C128.022 51.2858 127.26 48.4541 125.735 46.4169C124.223 44.3668 121.859 43.3417 118.643 43.3417C116.465 43.3417 114.671 43.8094 113.262 44.7447C111.852 45.6801 110.802 47.0127 110.11 48.7424C109.431 50.4594 109.091 52.5159 109.091 54.912Z" fill="#018FD7"/>
</svg>
