<svg width="137" height="82" viewBox="0 0 137 82" fill="none" xmlns="http://www.w3.org/2000/svg">
<path d="M3.24023 7.01758H13.6992C18.0332 7.01758 21.123 7.66016 22.9688 8.94531C24.8145 10.2305 25.7373 12.0762 25.7373 14.4824C25.7373 15.7949 25.498 16.9092 25.0195 17.8252C24.5547 18.7412 23.96 19.4658 23.2354 19.999C22.5244 20.5322 21.793 20.8945 21.041 21.0859V21.291C21.8613 21.4961 22.6748 21.8379 23.4814 22.3164C24.3018 22.7812 24.9785 23.4854 25.5117 24.4287C26.0586 25.3584 26.332 26.623 26.332 28.2227C26.332 30.041 25.8672 31.6064 24.9375 32.9189C24.0215 34.2314 22.709 35.2432 21 35.9541C19.291 36.6514 17.2607 37 14.9092 37H3.24023V7.01758ZM11.3408 18.5225H13.7812C15.1211 18.5225 16.0645 18.249 16.6113 17.7021C17.1582 17.1416 17.4316 16.4648 17.4316 15.6719C17.4316 14.8516 17.1172 14.2295 16.4883 13.8057C15.873 13.3682 14.916 13.1494 13.6172 13.1494H11.3408V18.5225ZM11.3408 24.4492V30.7451H14.1914C15.5996 30.7451 16.584 30.4443 17.1445 29.8428C17.7051 29.2275 17.9854 28.4619 17.9854 27.5459C17.9854 27.0127 17.8623 26.5137 17.6162 26.0488C17.3838 25.5703 16.9805 25.1875 16.4062 24.9004C15.832 24.5996 15.0391 24.4492 14.0273 24.4492H11.3408ZM38.5883 13.3545C40.8442 13.3545 42.7924 13.751 44.433 14.5439C46.0737 15.3232 47.3383 16.499 48.227 18.0713C49.1157 19.6436 49.56 21.6123 49.56 23.9775V27.5459H35.225C35.2934 28.7627 35.7446 29.7607 36.5786 30.54C37.4262 31.3193 38.6704 31.709 40.311 31.709C41.7602 31.709 43.0864 31.5654 44.2895 31.2783C45.5063 30.9912 46.7573 30.5469 48.0424 29.9453V35.708C46.9213 36.2959 45.6977 36.7266 44.3715 37C43.0454 37.2734 41.3705 37.4102 39.3471 37.4102C37.0092 37.4102 34.9174 36.9932 33.0717 36.1592C31.226 35.3252 29.77 34.0332 28.7036 32.2832C27.6508 30.5332 27.1245 28.2842 27.1245 25.5361C27.1245 22.7471 27.603 20.457 28.56 18.666C29.517 16.8613 30.8569 15.5283 32.5795 14.667C34.3022 13.792 36.3051 13.3545 38.5883 13.3545ZM38.8754 18.8096C37.9321 18.8096 37.1391 19.1104 36.4965 19.7119C35.8676 20.2998 35.4985 21.2295 35.3891 22.501H42.2797C42.2661 21.8174 42.1293 21.1953 41.8696 20.6348C41.6098 20.0742 41.227 19.6299 40.7211 19.3018C40.2289 18.9736 39.6137 18.8096 38.8754 18.8096ZM59.2118 13.7646V37H51.1932V13.7646H59.2118ZM55.2333 4.41309C56.3817 4.41309 57.3798 4.65234 58.2274 5.13086C59.0887 5.60937 59.5194 6.55957 59.5194 7.98145C59.5194 9.3623 59.0887 10.2988 58.2274 10.791C57.3798 11.2695 56.3817 11.5088 55.2333 11.5088C54.0575 11.5088 53.0526 11.2695 52.2186 10.791C51.3983 10.2988 50.9882 9.3623 50.9882 7.98145C50.9882 6.55957 51.3983 5.60937 52.2186 5.13086C53.0526 4.65234 54.0575 4.41309 55.2333 4.41309ZM61.2757 47.0898C60.6331 47.0898 59.8948 47.0352 59.0609 46.9258C58.2132 46.8301 57.5159 46.7139 56.9691 46.5771V40.3223C57.4066 40.4453 57.8099 40.5342 58.179 40.5889C58.5482 40.6572 58.9652 40.6914 59.43 40.6914C60.0863 40.6914 60.6536 40.459 61.1321 39.9941C61.6243 39.543 61.8704 38.6133 61.8704 37.2051V13.7646H69.889V38.8867C69.889 40.2812 69.6155 41.6006 69.0687 42.8447C68.5218 44.1025 67.6195 45.1211 66.3616 45.9004C65.1038 46.6934 63.4085 47.0898 61.2757 47.0898ZM61.6654 7.98145C61.6654 6.55957 62.0755 5.60937 62.8958 5.13086C63.7298 4.65234 64.7347 4.41309 65.9105 4.41309C67.0589 4.41309 68.057 4.65234 68.9046 5.13086C69.7659 5.60937 70.1966 6.55957 70.1966 7.98145C70.1966 9.3623 69.7659 10.2988 68.9046 10.791C68.057 11.2695 67.0589 11.5088 65.9105 11.5088C64.7347 11.5088 63.7298 11.2695 62.8958 10.791C62.0755 10.2988 61.6654 9.3623 61.6654 7.98145ZM80.6072 13.7646V37H72.5886V13.7646H80.6072ZM76.6287 4.41309C77.7771 4.41309 78.7752 4.65234 79.6228 5.13086C80.4841 5.60937 80.9148 6.55957 80.9148 7.98145C80.9148 9.3623 80.4841 10.2988 79.6228 10.791C78.7752 11.2695 77.7771 11.5088 76.6287 11.5088C75.4529 11.5088 74.448 11.2695 73.614 10.791C72.7937 10.2988 72.3836 9.3623 72.3836 7.98145C72.3836 6.55957 72.7937 5.60937 73.614 5.13086C74.448 4.65234 75.4529 4.41309 76.6287 4.41309ZM97.8059 13.3545C100.198 13.3545 102.154 14.0312 103.671 15.3848C105.189 16.7383 105.947 18.9053 105.947 21.8857V37H97.9289V24.3262C97.9289 22.7812 97.7033 21.6191 97.2522 20.8398C96.8147 20.0469 96.1037 19.6504 95.1193 19.6504C93.6018 19.6504 92.5832 20.2725 92.0637 21.5166C91.5441 22.7471 91.2844 24.5176 91.2844 26.8281V37H83.2658V13.7646H89.3156L90.4025 16.8408H90.7102C91.2023 16.1025 91.7902 15.4736 92.4738 14.9541C93.1574 14.4346 93.9436 14.0381 94.8322 13.7646C95.7209 13.4912 96.7121 13.3545 97.8059 13.3545ZM116.399 47.0898C113.104 47.0898 110.561 46.5361 108.77 45.4287C106.993 44.335 106.104 42.7559 106.104 40.6914C106.104 39.3105 106.535 38.1689 107.396 37.2666C108.257 36.3643 109.549 35.7148 111.272 35.3184C110.561 35.0176 109.939 34.5322 109.406 33.8623C108.886 33.1924 108.627 32.5293 108.627 31.873C108.627 31.1484 108.825 30.5127 109.221 29.9658C109.618 29.4053 110.445 28.7422 111.703 27.9766C110.5 27.4434 109.549 26.6094 108.852 25.4746C108.169 24.3398 107.827 22.959 107.827 21.332C107.827 19.6504 108.21 18.2148 108.975 17.0254C109.755 15.8359 110.882 14.9268 112.359 14.2979C113.849 13.6689 115.661 13.3545 117.794 13.3545C118.081 13.3545 118.518 13.3818 119.106 13.4365C119.694 13.4775 120.289 13.5322 120.89 13.6006C121.492 13.6553 121.957 13.71 122.285 13.7646H130.385V17.6406L127.207 18.8096C127.425 19.2061 127.589 19.6367 127.699 20.1016C127.808 20.5664 127.863 21.0586 127.863 21.5781C127.863 24.0801 126.981 26.0215 125.217 27.4023C123.467 28.7832 120.849 29.4736 117.363 29.4736C116.502 29.4736 115.818 29.4189 115.312 29.3096C115.216 29.4873 115.141 29.665 115.087 29.8428C115.046 30.0068 115.025 30.1641 115.025 30.3145C115.025 30.6289 115.21 30.8818 115.579 31.0732C115.962 31.251 116.42 31.374 116.953 31.4424C117.5 31.5107 118.019 31.5449 118.511 31.5449H122.367C124.978 31.5449 126.933 32.0918 128.232 33.1855C129.531 34.2793 130.18 35.9268 130.18 38.1279C130.18 40.958 128.97 43.1592 126.55 44.7314C124.144 46.3037 120.76 47.0898 116.399 47.0898ZM116.789 42.0859C117.759 42.0859 118.737 41.9971 119.721 41.8193C120.706 41.6553 121.533 41.3818 122.203 40.999C122.873 40.6162 123.208 40.1104 123.208 39.4814C123.208 39.0029 123.009 38.6406 122.613 38.3945C122.216 38.1621 121.704 38.0049 121.075 37.9229C120.446 37.8408 119.783 37.7998 119.086 37.7998H115.968C115.394 37.7998 114.868 37.8887 114.389 38.0664C113.924 38.2578 113.555 38.5107 113.282 38.8252C113.008 39.1396 112.872 39.4951 112.872 39.8916C112.872 40.5479 113.227 41.0742 113.938 41.4707C114.649 41.8809 115.599 42.0859 116.789 42.0859ZM117.876 24.9414C118.641 24.9414 119.229 24.6475 119.639 24.0596C120.063 23.4717 120.275 22.5898 120.275 21.4141C120.275 20.2109 120.077 19.3086 119.68 18.707C119.284 18.1055 118.682 17.8047 117.876 17.8047C117.042 17.8047 116.42 18.1055 116.009 18.707C115.599 19.2949 115.394 20.1836 115.394 21.373C115.394 22.5625 115.599 23.458 116.009 24.0596C116.42 24.6475 117.042 24.9414 117.876 24.9414Z" fill="#252525"/>
<path d="M16.2022 77L6.76533 52.1297H6.61158C6.66283 52.6551 6.70767 53.2957 6.74611 54.0517C6.78455 54.8077 6.81659 55.6341 6.84221 56.531C6.86784 57.4151 6.88065 58.3185 6.88065 59.241V77H3.84394V48.9008H8.6873L17.586 72.272H17.7206L26.7538 48.9008H31.5587V77H28.3298V59.0104C28.3298 58.1775 28.3426 57.3447 28.3683 56.5118C28.3939 55.6661 28.4259 54.8717 28.4644 54.1286C28.5028 53.3726 28.5412 52.7191 28.5797 52.1682H28.4259L18.8737 77H16.2022ZM54.8915 77H39.2466V48.9008H54.8915V51.7838H42.514V60.8747H54.1803V63.7192H42.514V74.117H54.8915V77ZM69.7483 77H66.4617V51.7838H57.6207V48.9008H78.5509V51.7838H69.7483V77ZM90.3902 48.9008C92.6966 48.9008 94.5993 49.1891 96.0985 49.7657C97.6104 50.3295 98.738 51.1944 99.4811 52.3603C100.224 53.5263 100.596 55.0127 100.596 56.8193C100.596 58.3056 100.327 59.5485 99.7887 60.5479C99.2505 61.5346 98.5458 62.3354 97.6745 62.9504C96.8032 63.5654 95.8743 64.0395 94.8876 64.3727L102.595 77H98.7892L91.9086 65.276H86.0658V77H82.7985V48.9008H90.3902ZM90.198 51.7261H86.0658V62.5083H90.5248C92.8183 62.5083 94.5032 62.0407 95.5796 61.1053C96.6687 60.17 97.2132 58.7925 97.2132 56.9731C97.2132 55.0639 96.6366 53.7121 95.4835 52.9177C94.3431 52.1233 92.5813 51.7261 90.198 51.7261ZM131.463 62.912C131.463 65.0774 131.187 67.0506 130.636 68.8316C130.085 70.5998 129.265 72.1246 128.176 73.4059C127.1 74.6744 125.761 75.6546 124.159 76.3465C122.558 77.0384 120.7 77.3844 118.586 77.3844C116.407 77.3844 114.505 77.0384 112.877 76.3465C111.263 75.6546 109.917 74.668 108.841 73.3867C107.778 72.1054 106.977 70.5742 106.439 68.7932C105.913 67.0122 105.651 65.0389 105.651 62.8735C105.651 60.0034 106.125 57.4856 107.073 55.3202C108.021 53.1548 109.456 51.4698 111.378 50.2654C113.313 49.061 115.735 48.4588 118.643 48.4588C121.424 48.4588 123.762 49.0546 125.658 50.2462C127.568 51.4378 129.009 53.1163 129.983 55.2817C130.969 57.4343 131.463 59.9778 131.463 62.912ZM109.091 62.912C109.091 65.2952 109.431 67.3581 110.11 69.1007C110.789 70.8433 111.827 72.1887 113.223 73.1368C114.633 74.085 116.42 74.5591 118.586 74.5591C120.764 74.5591 122.545 74.085 123.929 73.1368C125.325 72.1887 126.357 70.8433 127.023 69.1007C127.689 67.3581 128.022 65.2952 128.022 62.912C128.022 59.2858 127.26 56.4541 125.735 54.4169C124.223 52.3668 121.859 51.3417 118.643 51.3417C116.465 51.3417 114.671 51.8094 113.262 52.7447C111.852 53.6801 110.802 55.0127 110.11 56.7424C109.431 58.4594 109.091 60.5159 109.091 62.912Z" fill="#018FD7"/>
</svg>
