<svg width="38" height="38" viewBox="0 0 38 38" fill="none" xmlns="http://www.w3.org/2000/svg">
<path d="M12.2472 4.79167V13.3167C12.2472 13.9125 11.7736 14.3861 11.1778 14.3861C10.5819 14.3861 10.1083 13.9125 10.1083 13.3167V4.79167C10.1083 4.19583 10.5819 3.72222 11.1778 3.72222C11.7736 3.72222 12.2472 4.19583 12.2472 4.79167Z" fill="#016DB5"/>
<path d="M12.2472 27.5249V33.2083C12.2472 33.8041 11.7736 34.2777 11.1778 34.2777C10.5819 34.2777 10.1083 33.8041 10.1083 33.2083V27.5249C10.1083 26.9291 10.5819 26.4555 11.1778 26.4555C11.7736 26.4555 12.2472 26.9444 12.2472 27.5249Z" fill="#016DB5"/>
<path d="M17.2125 21.8417C17.2125 18.5089 14.5107 15.807 11.1778 15.807C7.84489 15.807 5.14305 18.5089 5.14305 21.8417C5.14305 25.1746 7.84489 27.8765 11.1778 27.8765C14.5107 27.8765 17.2125 25.1746 17.2125 21.8417Z" fill="#016DB5"/>
<path d="M27.8764 4.79166V10.475C27.8764 11.0708 27.4028 11.5444 26.8069 11.5444C26.2111 11.5444 25.7375 11.0708 25.7375 10.475V4.79166C25.7375 4.19582 26.2111 3.72221 26.8069 3.72221C27.4028 3.72221 27.8764 4.19582 27.8764 4.79166Z" fill="#016DB5"/>
<path d="M27.8764 24.6833V33.2083C27.8764 33.8041 27.4028 34.2777 26.8069 34.2777C26.2111 34.2777 25.7375 33.8041 25.7375 33.2083V24.6833C25.7375 24.0874 26.2111 23.6138 26.8069 23.6138C27.4028 23.6138 27.8764 24.1027 27.8764 24.6833Z" fill="#016DB5"/>
<path d="M32.8569 16.1584C32.8569 12.8255 30.1551 10.1237 26.8222 10.1237C23.4893 10.1237 20.7875 12.8255 20.7875 16.1584C20.7875 19.4913 23.4893 22.1931 26.8222 22.1931C30.1551 22.1931 32.8569 19.4913 32.8569 16.1584Z" fill="#016DB5"/>
</svg>
