<svg width="19" height="16" viewBox="0 0 19 16" fill="none" xmlns="http://www.w3.org/2000/svg">
<path d="M17.75 12.625H0.25V13.875H1.5V15.125H2.75V13.875H5.875V15.125H7.125V13.875H10.25V15.125H11.5V13.875H14.625V15.125H15.875V13.875H17.75V12.625ZM17.5713 7.36875L10.3438 2.4C8.78215 1.32302 6.92946 0.747464 5.0325 0.750001H0.25V2H5.0325C6.67645 1.99777 8.28209 2.49636 9.63562 3.42938L10.2831 3.875H4.625V5.125H12.1012L16.8638 8.39875C16.97 8.4718 17.0501 8.57694 17.0922 8.69878C17.1344 8.82062 17.1365 8.95276 17.0981 9.07585C17.0598 9.19895 16.983 9.30653 16.8791 9.38285C16.7752 9.45917 16.6496 9.50023 16.5206 9.5H0.25V10.75H16.5212C16.9168 10.7499 17.302 10.6233 17.6205 10.3887C17.9389 10.1541 18.174 9.82378 18.2913 9.44601C18.4086 9.06824 18.402 8.66286 18.2725 8.28912C18.1429 7.91537 17.8972 7.59287 17.5713 7.36875Z" fill="#018FD7"/>
</svg>
