<svg width="159" height="74" viewBox="0 0 159 74" fill="none" xmlns="http://www.w3.org/2000/svg">
<path d="M3.24023 37V7.01758H11.3818V37H3.24023ZM31.7387 29.8633C31.7387 31.3398 31.4106 32.6455 30.7543 33.7803C30.0981 34.915 29.0454 35.8037 27.5961 36.4463C26.1606 37.0889 24.267 37.4102 21.9155 37.4102C20.2612 37.4102 18.7778 37.3213 17.4653 37.1436C16.1664 36.9658 14.8471 36.624 13.5073 36.1182V29.6992C14.9702 30.3691 16.4604 30.8545 17.978 31.1553C19.4955 31.4424 20.6918 31.5859 21.5668 31.5859C22.4692 31.5859 23.1254 31.4902 23.5356 31.2988C23.9594 31.0938 24.1713 30.793 24.1713 30.3965C24.1713 30.0547 24.0278 29.7676 23.7407 29.5352C23.4672 29.2891 22.9682 29.0088 22.2436 28.6943C21.5327 28.3799 20.5278 27.9561 19.2289 27.4229C17.9438 26.8896 16.8705 26.3086 16.0092 25.6797C15.1616 25.0508 14.5258 24.2988 14.102 23.4238C13.6782 22.5488 13.4662 21.4756 13.4662 20.2041C13.4662 17.9346 14.3412 16.2256 16.0912 15.0771C17.8412 13.9287 20.1586 13.3545 23.0434 13.3545C24.5746 13.3545 26.017 13.5254 27.3705 13.8672C28.7241 14.1953 30.1254 14.6807 31.5746 15.3232L29.3803 20.4912C28.2319 19.9717 27.0698 19.5547 25.894 19.2402C24.7182 18.9258 23.7817 18.7686 23.0844 18.7686C22.4555 18.7686 21.9702 18.8506 21.6284 19.0146C21.2866 19.1787 21.1157 19.418 21.1157 19.7324C21.1157 20.0195 21.2319 20.2725 21.4643 20.4912C21.7104 20.71 22.1684 20.9629 22.8383 21.25C23.5082 21.5371 24.4858 21.9404 25.7709 22.46C27.1245 23.0068 28.2387 23.5947 29.1137 24.2236C30.0024 24.8389 30.6586 25.5908 31.0825 26.4795C31.52 27.3682 31.7387 28.4961 31.7387 29.8633ZM44.6512 31.0732C45.3759 31.0732 46.0389 30.998 46.6405 30.8477C47.2421 30.6973 47.871 30.5059 48.5272 30.2734V36.1182C47.6522 36.501 46.7225 36.8086 45.7382 37.041C44.7675 37.2871 43.5233 37.4102 42.0057 37.4102C40.5018 37.4102 39.1757 37.1777 38.0272 36.7129C36.8788 36.2344 35.9833 35.4141 35.3407 34.252C34.7118 33.0762 34.3973 31.4424 34.3973 29.3506V19.7734H31.5878V16.5127L35.1561 13.9902L37.2274 9.10938H42.4774V13.7646H48.1786V19.7734H42.4774V28.8174C42.4774 29.5693 42.6688 30.1367 43.0516 30.5195C43.4345 30.8887 43.9677 31.0732 44.6512 31.0732ZM60.9886 13.3545C63.928 13.3545 66.2249 14.0859 67.8792 15.5488C69.5335 16.998 70.3607 19.0693 70.3607 21.7627V37H64.803L63.265 33.9238H63.1009C62.4446 34.7441 61.7679 35.4141 61.0706 35.9336C60.387 36.4395 59.6009 36.8086 58.7122 37.041C57.8236 37.2871 56.7366 37.4102 55.4515 37.4102C54.1116 37.4102 52.9085 37.1367 51.8421 36.5898C50.7757 36.043 49.9349 35.2158 49.3196 34.1084C48.7044 33.001 48.3968 31.5996 48.3968 29.9043C48.3968 27.416 49.2581 25.5703 50.9808 24.3672C52.7034 23.1641 55.1986 22.4873 58.4661 22.3369L62.3421 22.2139V21.8857C62.3421 20.8467 62.0823 20.1084 61.5628 19.6709C61.057 19.2334 60.3734 19.0146 59.512 19.0146C58.596 19.0146 57.5706 19.1787 56.4359 19.5068C55.3148 19.8213 54.1868 20.2314 53.0521 20.7373L50.7347 15.4463C52.0745 14.7627 53.5921 14.2432 55.2874 13.8877C56.9827 13.5322 58.8831 13.3545 60.9886 13.3545ZM62.3831 26.623L60.5374 26.7051C59.0609 26.7598 58.0218 27.0195 57.4202 27.4844C56.8323 27.9355 56.5384 28.585 56.5384 29.4326C56.5384 30.2256 56.7503 30.8135 57.1741 31.1963C57.598 31.5654 58.1585 31.75 58.8558 31.75C59.8265 31.75 60.6536 31.4424 61.3372 30.8271C62.0345 30.2119 62.3831 29.4121 62.3831 28.4277V26.623ZM87.4158 13.3545C89.8084 13.3545 91.7634 14.0312 93.281 15.3848C94.7986 16.7383 95.5574 18.9053 95.5574 21.8857V37H87.5388V24.3262C87.5388 22.7812 87.3132 21.6191 86.8621 20.8398C86.4246 20.0469 85.7136 19.6504 84.7293 19.6504C83.2117 19.6504 82.1931 20.2725 81.6736 21.5166C81.1541 22.7471 80.8943 24.5176 80.8943 26.8281V37H72.8757V13.7646H78.9255L80.0125 16.8408H80.3201C80.8123 16.1025 81.4002 15.4736 82.0837 14.9541C82.7673 14.4346 83.5535 14.0381 84.4421 13.7646C85.3308 13.4912 86.322 13.3545 87.4158 13.3545ZM106.091 5.08984V12.3086C106.091 13.1289 106.064 13.915 106.009 14.667C105.954 15.4053 105.886 16.1025 105.804 16.7588H106.091C106.693 15.8154 107.479 15.0156 108.449 14.3594C109.42 13.6895 110.692 13.3545 112.264 13.3545C114.684 13.3545 116.659 14.3799 118.191 16.4307C119.736 18.4814 120.508 21.4482 120.508 25.3311C120.508 27.9697 120.153 30.1914 119.442 31.9961C118.731 33.7871 117.733 35.1406 116.447 36.0566C115.176 36.959 113.699 37.4102 112.018 37.4102C110.377 37.4102 109.126 37.1299 108.265 36.5693C107.417 35.9951 106.693 35.3799 106.091 34.7236H105.599L104.327 37H98.0725V5.08984H106.091ZM109.331 19.6504C108.593 19.6504 107.985 19.8213 107.506 20.1631C107.028 20.5049 106.672 21.0381 106.44 21.7627C106.207 22.4736 106.091 23.3828 106.091 24.4902V25.6182C106.091 27.4229 106.33 28.7627 106.809 29.6377C107.301 30.5127 108.169 30.9502 109.413 30.9502C110.357 30.9502 111.081 30.4648 111.587 29.4941C112.093 28.5234 112.346 27.1084 112.346 25.249C112.346 23.3896 112.1 21.9951 111.608 21.0654C111.115 20.1221 110.357 19.6504 109.331 19.6504ZM144.761 13.7646V37H138.712L137.707 34.1084H137.235C136.756 34.8877 136.148 35.5234 135.41 36.0156C134.685 36.4941 133.879 36.8428 132.99 37.0615C132.101 37.2939 131.178 37.4102 130.221 37.4102C128.704 37.4102 127.33 37.1162 126.099 36.5283C124.882 35.9404 123.912 35.0176 123.187 33.7598C122.476 32.502 122.121 30.8818 122.121 28.8994V13.7646H130.139V26.459C130.139 27.9629 130.351 29.1113 130.775 29.9043C131.213 30.6836 131.923 31.0732 132.908 31.0732C133.92 31.0732 134.699 30.7998 135.246 30.2529C135.806 29.7061 136.196 28.8994 136.415 27.833C136.633 26.7666 136.743 25.4678 136.743 23.9365V13.7646H144.761ZM155.377 37H147.358V5.08984H155.377V37Z" fill="#252525"/>
<path d="M16.2022 69L6.76533 44.1297H6.61158C6.66283 44.6551 6.70767 45.2957 6.74611 46.0517C6.78455 46.8077 6.81659 47.6341 6.84221 48.531C6.86784 49.4151 6.88065 50.3185 6.88065 51.241V69H3.84394V40.9008H8.6873L17.586 64.272H17.7206L26.7538 40.9008H31.5587V69H28.3298V51.0104C28.3298 50.1775 28.3426 49.3447 28.3683 48.5118C28.3939 47.6661 28.4259 46.8717 28.4644 46.1286C28.5028 45.3726 28.5412 44.7191 28.5797 44.1682H28.4259L18.8737 69H16.2022ZM54.8915 69H39.2466V40.9008H54.8915V43.7838H42.514V52.8747H54.1803V55.7192H42.514V66.117H54.8915V69ZM69.7483 69H66.4617V43.7838H57.6207V40.9008H78.5509V43.7838H69.7483V69ZM90.3902 40.9008C92.6966 40.9008 94.5993 41.1891 96.0985 41.7657C97.6104 42.3295 98.738 43.1944 99.4811 44.3603C100.224 45.5263 100.596 47.0127 100.596 48.8193C100.596 50.3056 100.327 51.5485 99.7887 52.5479C99.2505 53.5346 98.5458 54.3354 97.6745 54.9504C96.8032 55.5654 95.8743 56.0395 94.8876 56.3727L102.595 69H98.7892L91.9086 57.276H86.0658V69H82.7985V40.9008H90.3902ZM90.198 43.7261H86.0658V54.5083H90.5248C92.8183 54.5083 94.5032 54.0407 95.5796 53.1053C96.6687 52.17 97.2132 50.7925 97.2132 48.9731C97.2132 47.0639 96.6366 45.7121 95.4835 44.9177C94.3431 44.1233 92.5813 43.7261 90.198 43.7261ZM131.463 54.912C131.463 57.0774 131.187 59.0506 130.636 60.8316C130.085 62.5998 129.265 64.1246 128.176 65.4059C127.1 66.6744 125.761 67.6546 124.159 68.3465C122.558 69.0384 120.7 69.3844 118.586 69.3844C116.407 69.3844 114.505 69.0384 112.877 68.3465C111.263 67.6546 109.917 66.668 108.841 65.3867C107.778 64.1054 106.977 62.5742 106.439 60.7932C105.913 59.0122 105.651 57.0389 105.651 54.8735C105.651 52.0034 106.125 49.4856 107.073 47.3202C108.021 45.1548 109.456 43.4698 111.378 42.2654C113.313 41.061 115.735 40.4588 118.643 40.4588C121.424 40.4588 123.762 41.0546 125.658 42.2462C127.568 43.4378 129.009 45.1163 129.983 47.2817C130.969 49.4343 131.463 51.9778 131.463 54.912ZM109.091 54.912C109.091 57.2952 109.431 59.3581 110.11 61.1007C110.789 62.8433 111.827 64.1887 113.223 65.1368C114.633 66.085 116.42 66.5591 118.586 66.5591C120.764 66.5591 122.545 66.085 123.929 65.1368C125.325 64.1887 126.357 62.8433 127.023 61.1007C127.689 59.3581 128.022 57.2952 128.022 54.912C128.022 51.2858 127.26 48.4541 125.735 46.4169C124.223 44.3668 121.859 43.3417 118.643 43.3417C116.465 43.3417 114.671 43.8094 113.262 44.7447C111.852 45.6801 110.802 47.0127 110.11 48.7424C109.431 50.4594 109.091 52.5159 109.091 54.912Z" fill="#018FD7"/>
</svg>
