<svg width="137" height="74" viewBox="0 0 137 74" fill="none" xmlns="http://www.w3.org/2000/svg">
<path d="M13.6172 7.01758C17.418 7.01758 20.2617 7.84473 22.1484 9.49902C24.0488 11.1533 24.999 13.5049 24.999 16.5537C24.999 17.9209 24.8008 19.2334 24.4043 20.4912C24.0215 21.749 23.3857 22.8701 22.4971 23.8545C21.6221 24.8389 20.4531 25.6182 18.9902 26.1924C17.541 26.7666 15.75 27.0537 13.6172 27.0537H11.3408V37H3.24023V7.01758H13.6172ZM13.4326 13.5596H11.3408V20.4502H12.9404C13.6377 20.4502 14.2871 20.334 14.8887 20.1016C15.4902 19.8555 15.9688 19.4658 16.3242 18.9326C16.6934 18.3857 16.8779 17.6611 16.8779 16.7588C16.8779 15.8154 16.5977 15.0498 16.0371 14.4619C15.4766 13.8604 14.6084 13.5596 13.4326 13.5596ZM48.1729 37L46.6963 31.3809H36.9551L35.4375 37H26.5371L36.3193 6.89453H47.127L57.0322 37H48.1729ZM45.0146 24.7363L43.7227 19.8145C43.5859 19.2812 43.3877 18.5225 43.1279 17.5381C42.8682 16.54 42.6084 15.5146 42.3486 14.4619C42.1025 13.3955 41.9111 12.5205 41.7744 11.8369C41.6514 12.5205 41.4736 13.3682 41.2412 14.3799C41.0225 15.3779 40.79 16.3691 40.5439 17.3535C40.3115 18.3379 40.1064 19.1582 39.9287 19.8145L38.6367 24.7363H45.0146ZM70.1162 7.01758C72.8369 7.01758 75.0996 7.35254 76.9043 8.02246C78.709 8.67871 80.0625 9.66309 80.9648 10.9756C81.8809 12.2881 82.3389 13.9219 82.3389 15.877C82.3389 17.0938 82.1338 18.2012 81.7236 19.1992C81.3135 20.1973 80.7256 21.0928 79.96 21.8857C79.208 22.665 78.3057 23.3486 77.2529 23.9365L85.9893 37H76.8018L70.4443 26.0898H68.3936V37H60.293V7.01758H70.1162ZM69.9932 13.1494H68.3936V19.999H69.9111C71.1553 19.999 72.1738 19.7256 72.9668 19.1787C73.7598 18.6318 74.1562 17.6543 74.1562 16.2461C74.1562 15.2754 73.8281 14.5166 73.1719 13.9697C72.5156 13.4229 71.4561 13.1494 69.9932 13.1494ZM88.7168 37V7.01758H96.8584V37H88.7168ZM122.965 27.8945C122.965 29.5215 122.555 31.0664 121.734 32.5293C120.914 33.9785 119.636 35.1543 117.899 36.0566C116.177 36.959 113.948 37.4102 111.214 37.4102C109.847 37.4102 108.644 37.3486 107.604 37.2256C106.579 37.1025 105.622 36.9043 104.733 36.6309C103.845 36.3438 102.922 35.9746 101.965 35.5234V28.3047C103.592 29.125 105.232 29.7539 106.887 30.1914C108.541 30.6152 110.038 30.8271 111.378 30.8271C112.185 30.8271 112.841 30.7314 113.347 30.54C113.866 30.3486 114.249 30.0889 114.495 29.7607C114.741 29.4189 114.864 29.0293 114.864 28.5918C114.864 28.0723 114.68 27.6348 114.311 27.2793C113.955 26.9102 113.381 26.5273 112.588 26.1309C111.795 25.7344 110.749 25.2422 109.45 24.6543C108.343 24.1348 107.338 23.6016 106.436 23.0547C105.547 22.5078 104.781 21.8857 104.139 21.1885C103.51 20.4775 103.024 19.6504 102.683 18.707C102.341 17.7637 102.17 16.6494 102.17 15.3643C102.17 13.4365 102.642 11.8232 103.585 10.5244C104.542 9.21191 105.868 8.22754 107.563 7.57129C109.272 6.91504 111.241 6.58691 113.47 6.58691C115.425 6.58691 117.182 6.80566 118.74 7.24316C120.312 7.68066 121.721 8.17969 122.965 8.74023L120.483 14.9951C119.198 14.4072 117.934 13.9424 116.689 13.6006C115.445 13.2451 114.29 13.0674 113.224 13.0674C112.526 13.0674 111.952 13.1562 111.501 13.334C111.063 13.498 110.735 13.7236 110.517 14.0107C110.312 14.2979 110.209 14.626 110.209 14.9951C110.209 15.46 110.387 15.877 110.742 16.2461C111.111 16.6152 111.72 17.0186 112.567 17.4561C113.429 17.8799 114.598 18.4336 116.074 19.1172C117.537 19.7734 118.781 20.4844 119.807 21.25C120.832 22.002 121.611 22.9111 122.145 23.9775C122.691 25.0303 122.965 26.3359 122.965 27.8945Z" fill="#252525"/>
<path d="M16.2022 69L6.76533 44.1297H6.61158C6.66283 44.6551 6.70767 45.2957 6.74611 46.0517C6.78455 46.8077 6.81659 47.6341 6.84221 48.531C6.86784 49.4151 6.88065 50.3185 6.88065 51.241V69H3.84394V40.9008H8.6873L17.586 64.272H17.7206L26.7538 40.9008H31.5587V69H28.3298V51.0104C28.3298 50.1775 28.3426 49.3447 28.3683 48.5118C28.3939 47.6661 28.4259 46.8717 28.4644 46.1286C28.5028 45.3726 28.5412 44.7191 28.5797 44.1682H28.4259L18.8737 69H16.2022ZM54.8915 69H39.2466V40.9008H54.8915V43.7838H42.514V52.8747H54.1803V55.7192H42.514V66.117H54.8915V69ZM69.7483 69H66.4617V43.7838H57.6207V40.9008H78.5509V43.7838H69.7483V69ZM90.3902 40.9008C92.6966 40.9008 94.5993 41.1891 96.0985 41.7657C97.6104 42.3295 98.738 43.1944 99.4811 44.3603C100.224 45.5263 100.596 47.0127 100.596 48.8193C100.596 50.3056 100.327 51.5485 99.7887 52.5479C99.2505 53.5346 98.5458 54.3354 97.6745 54.9504C96.8032 55.5654 95.8743 56.0395 94.8876 56.3727L102.595 69H98.7892L91.9086 57.276H86.0658V69H82.7985V40.9008H90.3902ZM90.198 43.7261H86.0658V54.5083H90.5248C92.8183 54.5083 94.5032 54.0407 95.5796 53.1053C96.6687 52.17 97.2132 50.7925 97.2132 48.9731C97.2132 47.0639 96.6366 45.7121 95.4835 44.9177C94.3431 44.1233 92.5813 43.7261 90.198 43.7261ZM131.463 54.912C131.463 57.0774 131.187 59.0506 130.636 60.8316C130.085 62.5998 129.265 64.1246 128.176 65.4059C127.1 66.6744 125.761 67.6546 124.159 68.3465C122.558 69.0384 120.7 69.3844 118.586 69.3844C116.407 69.3844 114.505 69.0384 112.877 68.3465C111.263 67.6546 109.917 66.668 108.841 65.3867C107.778 64.1054 106.977 62.5742 106.439 60.7932C105.913 59.0122 105.651 57.0389 105.651 54.8735C105.651 52.0034 106.125 49.4856 107.073 47.3202C108.021 45.1548 109.456 43.4698 111.378 42.2654C113.313 41.061 115.735 40.4588 118.643 40.4588C121.424 40.4588 123.762 41.0546 125.658 42.2462C127.568 43.4378 129.009 45.1163 129.983 47.2817C130.969 49.4343 131.463 51.9778 131.463 54.912ZM109.091 54.912C109.091 57.2952 109.431 59.3581 110.11 61.1007C110.789 62.8433 111.827 64.1887 113.223 65.1368C114.633 66.085 116.42 66.5591 118.586 66.5591C120.764 66.5591 122.545 66.085 123.929 65.1368C125.325 64.1887 126.357 62.8433 127.023 61.1007C127.689 59.3581 128.022 57.2952 128.022 54.912C128.022 51.2858 127.26 48.4541 125.735 46.4169C124.223 44.3668 121.859 43.3417 118.643 43.3417C116.465 43.3417 114.671 43.8094 113.262 44.7447C111.852 45.6801 110.802 47.0127 110.11 48.7424C109.431 50.4594 109.091 52.5159 109.091 54.912Z" fill="#018FD7"/>
</svg>
