<svg width="220" height="82" viewBox="0 0 220 82" fill="none" xmlns="http://www.w3.org/2000/svg">
<path d="M15.2783 19.4453H28.2188V35.6055C26.6738 36.1387 24.9033 36.5762 22.9072 36.918C20.9111 37.2461 18.8193 37.4102 16.6318 37.4102C13.7471 37.4102 11.2178 36.8496 9.04395 35.7285C6.87012 34.6074 5.1748 32.9053 3.95801 30.6221C2.74121 28.3252 2.13281 25.4268 2.13281 21.9268C2.13281 18.7822 2.73438 16.0684 3.9375 13.7852C5.14062 11.4883 6.91113 9.71777 9.24902 8.47363C11.6006 7.21582 14.4785 6.58691 17.8828 6.58691C19.7559 6.58691 21.5332 6.76465 23.2148 7.12012C24.8965 7.47559 26.3594 7.92676 27.6035 8.47363L25.04 14.8311C23.96 14.2979 22.8389 13.9014 21.6768 13.6416C20.5146 13.3682 19.2637 13.2314 17.9238 13.2314C16.1328 13.2314 14.6904 13.6348 13.5967 14.4414C12.5166 15.248 11.7305 16.3281 11.2383 17.6816C10.7461 19.0215 10.5 20.5049 10.5 22.1318C10.5 23.9912 10.7598 25.5635 11.2793 26.8486C11.8125 28.1201 12.585 29.0908 13.5967 29.7607C14.6221 30.417 15.8594 30.7451 17.3086 30.7451C17.7871 30.7451 18.3682 30.7109 19.0518 30.6426C19.749 30.5742 20.2754 30.4922 20.6309 30.3965V25.7002H15.2783V19.4453ZM53.518 13.7646V37H47.4682L46.4633 34.1084H45.9916C45.5131 34.8877 44.9047 35.5234 44.1664 36.0156C43.4418 36.4941 42.6352 36.8428 41.7465 37.0615C40.8579 37.2939 39.935 37.4102 38.978 37.4102C37.4604 37.4102 36.0864 37.1162 34.8559 36.5283C33.6391 35.9404 32.6684 35.0176 31.9438 33.7598C31.2329 32.502 30.8774 30.8818 30.8774 28.8994V13.7646H38.8959V26.459C38.8959 27.9629 39.1079 29.1113 39.5317 29.9043C39.9692 30.6836 40.6801 31.0732 41.6645 31.0732C42.6762 31.0732 43.4555 30.7998 44.0024 30.2529C44.5629 29.7061 44.9526 28.8994 45.1713 27.833C45.3901 26.7666 45.4995 25.4678 45.4995 23.9365V13.7646H53.518ZM67.4559 13.3545C70.3954 13.3545 72.6923 14.0859 74.3466 15.5488C76.0009 16.998 76.828 19.0693 76.828 21.7627V37H71.2704L69.7323 33.9238H69.5682C68.912 34.7441 68.2352 35.4141 67.538 35.9336C66.8544 36.4395 66.0682 36.8086 65.1796 37.041C64.2909 37.2871 63.204 37.4102 61.9188 37.4102C60.579 37.4102 59.3759 37.1367 58.3095 36.5898C57.243 36.043 56.4022 35.2158 55.787 34.1084C55.1718 33.001 54.8641 31.5996 54.8641 29.9043C54.8641 27.416 55.7255 25.5703 57.4481 24.3672C59.1708 23.1641 61.6659 22.4873 64.9335 22.3369L68.8095 22.2139V21.8857C68.8095 20.8467 68.5497 20.1084 68.0302 19.6709C67.5243 19.2334 66.8407 19.0146 65.9794 19.0146C65.0634 19.0146 64.038 19.1787 62.9032 19.5068C61.7821 19.8213 60.6542 20.2314 59.5194 20.7373L57.202 15.4463C58.5419 14.7627 60.0595 14.2432 61.7548 13.8877C63.4501 13.5322 65.3505 13.3545 67.4559 13.3545ZM68.8505 26.623L67.0048 26.7051C65.5282 26.7598 64.4891 27.0195 63.8876 27.4844C63.2997 27.9355 63.0057 28.585 63.0057 29.4326C63.0057 30.2256 63.2177 30.8135 63.6415 31.1963C64.0653 31.5654 64.6259 31.75 65.3231 31.75C66.2938 31.75 67.121 31.4424 67.8046 30.8271C68.5018 30.2119 68.8505 29.4121 68.8505 28.4277V26.623ZM93.8831 13.3545C96.2757 13.3545 98.2308 14.0312 99.7484 15.3848C101.266 16.7383 102.025 18.9053 102.025 21.8857V37H94.0062V24.3262C94.0062 22.7812 93.7806 21.6191 93.3294 20.8398C92.8919 20.0469 92.181 19.6504 91.1966 19.6504C89.679 19.6504 88.6605 20.2725 88.1409 21.5166C87.6214 22.7471 87.3616 24.5176 87.3616 26.8281V37H79.3431V13.7646H85.3929L86.4798 16.8408H86.7874C87.2796 16.1025 87.8675 15.4736 88.5511 14.9541C89.2347 14.4346 90.0208 14.0381 90.9095 13.7646C91.7982 13.4912 92.7894 13.3545 93.8831 13.3545ZM112.476 47.0898C109.181 47.0898 106.638 46.5361 104.847 45.4287C103.07 44.335 102.181 42.7559 102.181 40.6914C102.181 39.3105 102.612 38.1689 103.473 37.2666C104.335 36.3643 105.627 35.7148 107.349 35.3184C106.638 35.0176 106.016 34.5322 105.483 33.8623C104.964 33.1924 104.704 32.5293 104.704 31.873C104.704 31.1484 104.902 30.5127 105.299 29.9658C105.695 29.4053 106.522 28.7422 107.78 27.9766C106.577 27.4434 105.627 26.6094 104.929 25.4746C104.246 24.3398 103.904 22.959 103.904 21.332C103.904 19.6504 104.287 18.2148 105.052 17.0254C105.832 15.8359 106.96 14.9268 108.436 14.2979C109.927 13.6689 111.738 13.3545 113.871 13.3545C114.158 13.3545 114.595 13.3818 115.183 13.4365C115.771 13.4775 116.366 13.5322 116.968 13.6006C117.569 13.6553 118.034 13.71 118.362 13.7646H126.463V17.6406L123.284 18.8096C123.503 19.2061 123.667 19.6367 123.776 20.1016C123.886 20.5664 123.94 21.0586 123.94 21.5781C123.94 24.0801 123.058 26.0215 121.295 27.4023C119.545 28.7832 116.927 29.4736 113.44 29.4736C112.579 29.4736 111.895 29.4189 111.389 29.3096C111.294 29.4873 111.219 29.665 111.164 29.8428C111.123 30.0068 111.102 30.1641 111.102 30.3145C111.102 30.6289 111.287 30.8818 111.656 31.0732C112.039 31.251 112.497 31.374 113.03 31.4424C113.577 31.5107 114.096 31.5449 114.589 31.5449H118.444C121.055 31.5449 123.011 32.0918 124.309 33.1855C125.608 34.2793 126.258 35.9268 126.258 38.1279C126.258 40.958 125.048 43.1592 122.628 44.7314C120.221 46.3037 116.838 47.0898 112.476 47.0898ZM112.866 42.0859C113.837 42.0859 114.814 41.9971 115.799 41.8193C116.783 41.6553 117.61 41.3818 118.28 40.999C118.95 40.6162 119.285 40.1104 119.285 39.4814C119.285 39.0029 119.087 38.6406 118.69 38.3945C118.294 38.1621 117.781 38.0049 117.152 37.9229C116.523 37.8408 115.86 37.7998 115.163 37.7998H112.046C111.471 37.7998 110.945 37.8887 110.467 38.0664C110.002 38.2578 109.633 38.5107 109.359 38.8252C109.086 39.1396 108.949 39.4951 108.949 39.8916C108.949 40.5479 109.304 41.0742 110.015 41.4707C110.726 41.8809 111.677 42.0859 112.866 42.0859ZM113.953 24.9414C114.719 24.9414 115.306 24.6475 115.717 24.0596C116.14 23.4717 116.352 22.5898 116.352 21.4141C116.352 20.2109 116.154 19.3086 115.758 18.707C115.361 18.1055 114.76 17.8047 113.953 17.8047C113.119 17.8047 112.497 18.1055 112.087 18.707C111.677 19.2949 111.471 20.1836 111.471 21.373C111.471 22.5625 111.677 23.458 112.087 24.0596C112.497 24.6475 113.119 24.9414 113.953 24.9414ZM144.543 37H125.307V32.4268L134.925 19.8965H125.861V13.7646H144.092V18.7275L134.884 30.8682H144.543V37ZM153.436 5.08984V9.62207C153.436 11.3447 153.395 12.7939 153.313 13.9697C153.245 15.1318 153.176 16.0205 153.108 16.6357H153.477C153.983 15.8291 154.557 15.1865 155.2 14.708C155.842 14.2295 156.553 13.8877 157.333 13.6826C158.112 13.4639 158.96 13.3545 159.876 13.3545C161.407 13.3545 162.788 13.6484 164.018 14.2363C165.262 14.8242 166.254 15.7471 166.992 17.0049C167.73 18.249 168.099 19.876 168.099 21.8857V37H160.04V24.3262C160.04 22.7812 159.814 21.6191 159.363 20.8398C158.912 20.0469 158.214 19.6504 157.271 19.6504C156.3 19.6504 155.535 19.9307 154.974 20.4912C154.414 21.0381 154.017 21.8447 153.785 22.9111C153.552 23.9639 153.436 25.2559 153.436 26.7871V37H145.418V5.08984H153.436ZM192.804 25.3311C192.804 27.2725 192.537 28.9951 192.004 30.499C191.471 32.0029 190.698 33.2676 189.687 34.293C188.675 35.3184 187.451 36.0977 186.016 36.6309C184.58 37.1504 182.96 37.4102 181.155 37.4102C179.474 37.4102 177.929 37.1504 176.521 36.6309C175.126 36.0977 173.909 35.3184 172.87 34.293C171.831 33.2676 171.024 32.0029 170.45 30.499C169.89 28.9951 169.609 27.2725 169.609 25.3311C169.609 22.7607 170.074 20.5869 171.004 18.8096C171.947 17.0322 173.287 15.6787 175.024 14.749C176.774 13.8193 178.858 13.3545 181.278 13.3545C183.507 13.3545 185.489 13.8193 187.226 14.749C188.962 15.6787 190.322 17.0322 191.307 18.8096C192.305 20.5869 192.804 22.7607 192.804 25.3311ZM177.751 25.3311C177.751 26.6572 177.867 27.7783 178.1 28.6943C178.332 29.5967 178.701 30.2871 179.207 30.7656C179.727 31.2305 180.403 31.4629 181.237 31.4629C182.071 31.4629 182.734 31.2305 183.227 30.7656C183.719 30.2871 184.074 29.5967 184.293 28.6943C184.525 27.7783 184.642 26.6572 184.642 25.3311C184.642 24.0049 184.525 22.8975 184.293 22.0088C184.074 21.1201 183.712 20.4502 183.206 19.999C182.714 19.5479 182.044 19.3223 181.196 19.3223C179.98 19.3223 179.098 19.8281 178.551 20.8398C178.018 21.8516 177.751 23.3486 177.751 25.3311ZM217.057 13.7646V37H211.007L210.002 34.1084H209.531C209.052 34.8877 208.444 35.5234 207.706 36.0156C206.981 36.4941 206.174 36.8428 205.286 37.0615C204.397 37.2939 203.474 37.4102 202.517 37.4102C201 37.4102 199.626 37.1162 198.395 36.5283C197.178 35.9404 196.208 35.0176 195.483 33.7598C194.772 32.502 194.417 30.8818 194.417 28.8994V13.7646H202.435V26.459C202.435 27.9629 202.647 29.1113 203.071 29.9043C203.508 30.6836 204.219 31.0732 205.204 31.0732C206.215 31.0732 206.995 30.7998 207.542 30.2529C208.102 29.7061 208.492 28.8994 208.71 27.833C208.929 26.7666 209.039 25.4678 209.039 23.9365V13.7646H217.057Z" fill="#252525"/>
<path d="M16.2022 77L6.76533 52.1297H6.61158C6.66283 52.6551 6.70767 53.2957 6.74611 54.0517C6.78455 54.8077 6.81659 55.6341 6.84221 56.531C6.86784 57.4151 6.88065 58.3185 6.88065 59.241V77H3.84394V48.9008H8.6873L17.586 72.272H17.7206L26.7538 48.9008H31.5587V77H28.3298V59.0104C28.3298 58.1775 28.3426 57.3447 28.3683 56.5118C28.3939 55.6661 28.4259 54.8717 28.4644 54.1286C28.5028 53.3726 28.5412 52.7191 28.5797 52.1682H28.4259L18.8737 77H16.2022ZM54.8915 77H39.2466V48.9008H54.8915V51.7838H42.514V60.8747H54.1803V63.7192H42.514V74.117H54.8915V77ZM69.7483 77H66.4617V51.7838H57.6207V48.9008H78.5509V51.7838H69.7483V77ZM90.3902 48.9008C92.6966 48.9008 94.5993 49.1891 96.0985 49.7657C97.6104 50.3295 98.738 51.1944 99.4811 52.3603C100.224 53.5263 100.596 55.0127 100.596 56.8193C100.596 58.3056 100.327 59.5485 99.7887 60.5479C99.2505 61.5346 98.5458 62.3354 97.6745 62.9504C96.8032 63.5654 95.8743 64.0395 94.8876 64.3727L102.595 77H98.7892L91.9086 65.276H86.0658V77H82.7985V48.9008H90.3902ZM90.198 51.7261H86.0658V62.5083H90.5248C92.8183 62.5083 94.5032 62.0407 95.5796 61.1053C96.6687 60.17 97.2132 58.7925 97.2132 56.9731C97.2132 55.0639 96.6366 53.7121 95.4835 52.9177C94.3431 52.1233 92.5813 51.7261 90.198 51.7261ZM131.463 62.912C131.463 65.0774 131.187 67.0506 130.636 68.8316C130.085 70.5998 129.265 72.1246 128.176 73.4059C127.1 74.6744 125.761 75.6546 124.159 76.3465C122.558 77.0384 120.7 77.3844 118.586 77.3844C116.407 77.3844 114.505 77.0384 112.877 76.3465C111.263 75.6546 109.917 74.668 108.841 73.3867C107.778 72.1054 106.977 70.5742 106.439 68.7932C105.913 67.0122 105.651 65.0389 105.651 62.8735C105.651 60.0034 106.125 57.4856 107.073 55.3202C108.021 53.1548 109.456 51.4698 111.378 50.2654C113.313 49.061 115.735 48.4588 118.643 48.4588C121.424 48.4588 123.762 49.0546 125.658 50.2462C127.568 51.4378 129.009 53.1163 129.983 55.2817C130.969 57.4343 131.463 59.9778 131.463 62.912ZM109.091 62.912C109.091 65.2952 109.431 67.3581 110.11 69.1007C110.789 70.8433 111.827 72.1887 113.223 73.1368C114.633 74.085 116.42 74.5591 118.586 74.5591C120.764 74.5591 122.545 74.085 123.929 73.1368C125.325 72.1887 126.357 70.8433 127.023 69.1007C127.689 67.3581 128.022 65.2952 128.022 62.912C128.022 59.2858 127.26 56.4541 125.735 54.4169C124.223 52.3668 121.859 51.3417 118.643 51.3417C116.465 51.3417 114.671 51.8094 113.262 52.7447C111.852 53.6801 110.802 55.0127 110.11 56.7424C109.431 58.4594 109.091 60.5159 109.091 62.912Z" fill="#018FD7"/>
</svg>
