<svg width="99" height="86" viewBox="0 0 99 86" fill="none" xmlns="http://www.w3.org/2000/svg">
<path d="M3.34436 81.3872L95.9063 63.2099V62.0946L3.34436 75.0853V81.3872ZM65.4452 7.88901C63.5379 6.90829 59.5068 5.55478 57.4556 5.18198C56.28 4.96851 54.7841 4.81846 53.0826 4.73029C51.1334 4.63789 49.1815 4.61622 47.2307 4.66532C38.5992 4.8525 30.4301 5.55787 25.5327 8.31131C23.2155 9.61378 21.6887 11.1869 20.2765 12.6348C16.1045 16.9119 12.9118 22.0986 10.5729 27.3951C5.56103 38.743 -0.742485 53.0423 6.0947 59.2298C6.17978 59.318 6.26486 59.4046 6.35612 59.4912C6.37778 59.5082 6.3917 59.5299 6.41491 59.5485H6.42264C7.2704 60.3483 8.31229 60.913 9.44523 61.1866L9.40192 61.1881C9.40192 61.1881 10.1274 61.6739 10.6874 62.4396L3.34436 62.8913V66.975L10.0238 66.4908C8.91001 67.9341 10.972 70.2915 16.7357 69.7408C36.5449 67.8397 95.9063 61.7311 95.9063 61.7311V56.3155L5.92919 54.8537C5.78217 54.4234 5.66942 53.9822 5.59197 53.5342H25.1182C30.625 53.5342 41.3542 49.7629 46.6553 47.9685C52.4824 45.9978 63.5209 39.4375 69.5042 38.3423C70.618 38.1382 72.8872 38.4352 73.9979 38.6424C75.4488 38.9147 77.5572 39.4762 79.9286 40.1738V28.9574C77.6593 27.9195 75.6314 27.1105 74.1851 26.764C73.1749 26.5211 71.0542 26.4113 70.0657 26.764C63.2332 29.191 52.0601 40.7833 45.5307 44.2096C40.5034 46.8486 29.9769 51.7275 24.4917 51.7275H5.41562C5.34292 48.8564 6.09934 45.4286 7.26259 41.8429C7.24248 41.928 7.21464 42.0208 7.19453 42.1059C7.59827 42.9721 8.15205 43.5182 8.74141 43.4826C9.8072 43.4223 10.5621 41.549 10.4337 39.3014C10.3548 37.9077 9.94642 36.7274 9.39883 36.0267C9.96034 34.6329 10.5435 33.2485 11.1267 31.8996C11.204 32.6607 11.7006 33.5316 12.3209 33.5316H26.6155C28.6141 33.5316 32.6607 30.7348 34.3886 29.5267C39.1282 26.2102 48.0738 17.5013 52.7113 13.9791C52.8072 13.9064 52.9217 13.8213 53.0393 13.7393C56.0696 16.1895 59.1386 20.0707 59.1386 20.0707C59.1386 20.0707 64.7847 16.3071 66.8822 15.9343C68.4833 15.6512 71.8555 16.0534 73.3111 16.9135C76.0862 18.5532 91.5023 28.713 95.9063 31.6212V29.5468C95.9063 29.5468 73.5756 12.0733 65.4452 7.88901Z" fill="#018FD7"/>
<path d="M84.8569 41.6929V31.366C83.7402 30.792 82.616 30.2324 81.4847 29.6876V40.6426C82.5861 40.9767 83.7215 41.3325 84.8569 41.6929ZM89.0721 43.065V33.5935C88.2167 33.1294 87.3396 32.6607 86.4502 32.1951V42.2065C87.3396 42.4942 88.2167 42.7804 89.0721 43.065ZM93.8009 44.6552C94.5914 44.9259 95.3014 45.1687 95.9062 45.3807V37.4127C95.2999 37.0631 94.5883 36.6578 93.8009 36.2123V44.6552ZM92.7243 44.2901V35.606C91.9602 35.1775 91.1434 34.7242 90.2895 34.2555V43.4687C91.1434 43.7534 91.9571 44.0302 92.7243 44.2901ZM32.0884 37.2271C29.5809 39.7593 28.7951 43.0665 30.3296 44.6181C31.8687 46.1711 35.1419 45.3745 37.6463 42.8453C40.1522 40.3131 40.938 37.0059 39.402 35.4544C37.8644 33.9029 34.5912 34.698 32.0884 37.2271Z" fill="#252525"/>
</svg>
